<?xml version="1.0" encoding="UTF-8" standalone="yes"?>
<svg xmlns="http://www.w3.org/2000/svg" xmlns:xlink="http://www.w3.org/1999/xlink" width="829.736px" height="635.930px" version="1.1" viewBox="-255.874 532.534 414.868 317.965">
  <!--
	Exported with Concepts: Smarter Sketching
	Version: 1055 on iOS 15.2
	https://concepts.app/
	-->
  <title>Untitled 18</title>
  <desc>Drawing exported from Concepts: Smarter Sketching</desc>
  <animateTransform attributeType="xml" attributeName="transform" type="rotate" from="360 0 0" to="0 0 0" dur="9s" additive="sum" repeatCount="indefinite" />
  <defs></defs>
  <g id="Pen" opacity="1.000">
    <path id="STROKE_2252e724-1b9b-4597-b338-ee149f8d0dad" opacity="1.000" fill="none" stroke="#1c7aa2" stroke-width="19.000" stroke-opacity="1.000" stroke-linecap="round" stroke-linejoin="round" d="M -217.318 836.345 Q -211.302 836.345 -205.250 836.345 Q -199.207 836.345 -193.181 836.345 Q -187.005 836.345 -181.112 836.345 Q -174.640 836.345 -169.044 836.345 Q -162.914 836.345 -156.975 836.345 Q -150.473 836.345 -144.906 836.345 Q -138.314 836.345 -132.837 836.345 Q -126.664 836.345 -120.769 836.345 Q -114.602 836.345 -108.700 836.345 Q -102.161 836.345 -96.631 836.345 Q -90.511 836.345 -84.563 836.345 Q -78.059 836.345 -72.494 836.345 Q -65.803 836.345 -60.425 836.345 Q -53.741 836.345 -48.357 836.345 Q -42.123 836.345 -36.288 836.345 Q -29.715 836.345 -24.219 836.345 Q -17.448 836.345 -12.151 836.345 Q -6.078 836.345 -0.082 836.345 Q 6.297 836.345 11.987 836.345 Q 18.218 836.345 24.056 836.345 Q 30.562 836.345 36.124 836.345 Q 42.212 836.345 48.193 836.345 Q 54.306 836.345 60.262 836.345 Q 66.172 836.345 72.330 836.345 Q 78.668 836.345 84.399 836.345 Q 83.514 836.345 83.341 836.345 L 84.399 836.345 Q 84.339 836.345 72.330 836.345 Q 66.054 836.345 60.262 836.345 Q 59.246 836.345 72.330 836.345 Q 78.365 836.345 78.906 836.345 Q 78.886 836.345 78.116 836.345 Q 79.027 836.345 78.744 836.345 Q 79.376 836.345 79.285 836.345 Q 79.520 836.345 84.399 836.345 Q 90.497 836.345 96.468 836.345 Q 102.676 836.345 108.536 836.345 Q 114.521 836.345 120.605 836.345 L 118.737 836.345 L 120.605 836.345 "></path>
    <path id="STROKE_f6cc8b2a-16e3-419a-8430-8c76ccd83ea6" opacity="1.000" fill="none" stroke="#1c7aa2" stroke-width="19.000" stroke-opacity="1.000" stroke-linecap="round" stroke-linejoin="round" d="M -241.456 812.207 L -241.456 810.233 L -241.456 812.207 L -241.456 809.206 L -241.456 812.207 L -241.456 808.630 L -241.456 812.207 Q -241.456 806.985 -241.456 806.712 L -241.456 812.207 Q -241.456 806.178 -241.456 800.139 Q -241.456 793.949 -241.456 788.070 Q -241.456 781.929 -241.456 776.001 Q -241.456 769.783 -241.456 763.933 Q -241.456 757.093 -241.456 751.864 Q -241.456 745.220 -241.456 739.795 Q -241.456 733.116 -241.456 727.727 Q -241.456 721.631 -241.456 715.658 Q -241.456 709.611 -241.456 703.589 Q -241.456 697.308 -241.456 691.521 Q -241.456 685.142 -241.456 679.452 Q -241.456 673.974 -241.456 667.383 Q -241.456 661.071 -241.456 655.314 Q -241.456 649.187 -241.456 643.246 Q -241.456 638.400 -241.456 631.177 Q -241.456 625.022 -241.456 619.108 Q -241.456 612.876 -241.456 607.040 Q -241.456 600.993 -241.456 594.971 Q -241.456 588.847 -241.456 582.902 Q -241.456 576.376 -241.456 570.833 "></path>
    <path id="STROKE_fadb5ff1-8d54-4480-b820-4cd5ae4a3593" opacity="1.000" fill="none" stroke="#1c7aa2" stroke-width="19.000" stroke-opacity="1.000" stroke-linecap="round" stroke-linejoin="round" d="M -215.754 546.696 Q -215.530 546.696 -215.307 546.696 L -217.318 546.696 Q -216.899 546.696 -205.250 546.696 Q -198.797 546.696 -193.181 546.696 Q -186.663 546.696 -181.112 546.696 Q -174.725 546.696 -169.044 546.696 Q -162.731 546.696 -156.975 546.696 Q -150.834 546.696 -144.906 546.696 Q -138.798 546.696 -132.837 546.696 Q -125.923 546.696 -120.769 546.696 Q -114.502 546.696 -108.700 546.696 Q -102.424 546.696 -96.631 546.696 Q -90.388 546.696 -84.563 546.696 Q -77.905 546.696 -72.494 546.696 Q -66.148 546.696 -60.425 546.696 Q -54.196 546.696 -48.357 546.696 Q -41.768 546.696 -36.288 546.696 Q -29.900 546.696 -24.219 546.696 Q -18.088 546.696 -12.151 546.696 Q -6.051 546.696 -0.082 546.696 Q 6.152 546.696 11.987 546.696 Q 18.147 546.696 24.056 546.696 Q 30.672 546.696 36.124 546.696 Q 42.303 546.696 48.193 546.696 Q 54.521 546.696 60.262 546.696 Q 66.501 546.696 72.330 546.696 Q 78.369 546.696 84.399 546.696 Q 90.657 546.696 96.468 546.696 Q 102.875 546.696 108.536 546.696 Q 114.933 546.696 120.605 546.696 "></path>
    <path id="STROKE_b138b347-754f-4a34-9ccd-2097bc1677f2" opacity="1.000" fill="none" stroke="#1c7aa2" stroke-width="19.000" stroke-opacity="1.000" stroke-linecap="round" stroke-linejoin="round" d="M 144.743 812.207 Q 144.743 810.644 144.743 800.139 Q 144.743 793.812 144.743 788.070 Q 144.743 782.013 144.743 776.001 Q 144.743 769.731 144.743 763.933 Q 144.743 757.323 144.743 751.864 Q 144.743 745.125 144.743 739.795 Q 144.743 733.651 144.743 727.727 Q 144.743 721.316 144.743 715.658 Q 144.743 708.993 144.743 703.589 Q 144.743 696.753 144.743 691.521 Q 144.743 685.404 144.743 679.452 Q 144.743 672.682 144.743 667.383 Q 144.743 660.578 144.743 655.314 Q 144.743 649.187 144.743 643.246 Q 144.743 637.031 144.743 631.177 Q 144.743 624.624 144.743 619.108 Q 144.743 612.918 144.743 607.040 Q 144.743 600.678 144.743 594.971 Q 144.743 588.931 144.743 582.902 Q 144.743 576.786 144.743 570.833 "></path>
    <path id="STROKE_582d5322-2efc-45d2-9f9e-0ee94a210571" opacity="1.000" fill="none" stroke="#1c7aa2" stroke-width="19.000" stroke-opacity="1.000" stroke-linecap="round" stroke-linejoin="round" d="M -241.188 812.543 L -241.192 812.857 L -241.192 813.165 Q -241.159 813.956 -241.157 814.062 Q -241.156 814.168 -241.109 814.881 Q -241.063 815.594 -241.031 815.997 Q -240.998 816.400 -240.905 817.124 Q -240.812 817.847 -240.452 819.630 Q -240.091 821.414 -239.886 822.178 Q -239.680 822.943 -239.430 823.732 Q -239.181 824.521 -239.017 824.955 Q -238.852 825.388 -238.669 825.812 Q -238.486 826.237 -238.285 826.670 Q -238.084 827.103 -237.954 827.359 Q -237.825 827.615 -237.071 828.720 Q -236.318 829.824 -236.040 830.146 Q -235.763 830.469 -235.071 831.135 Q -234.379 831.801 -233.881 832.195 Q -233.382 832.590 -232.652 833.064 Q -231.921 833.539 -231.198 833.919 Q -230.476 834.299 -229.935 834.528 Q -229.395 834.757 -228.483 835.074 Q -227.571 835.391 -227.159 835.505 Q -226.747 835.619 -225.963 835.784 Q -225.179 835.950 -224.350 836.084 Q -223.521 836.219 -222.971 836.274 Q -222.421 836.329 -221.991 836.358 Q -221.562 836.386 -221.074 836.400 Q -220.587 836.414 -219.905 836.420 Q -219.223 836.426 -218.496 836.415 Q -217.770 836.405 -217.180 836.390 Q -216.590 836.374 -215.736 836.330 "></path>
    <path id="STROKE_031107a9-5ca2-4f7c-89b9-cccc74763c46" opacity="1.000" fill="none" stroke="#1c7aa2" stroke-width="19.000" stroke-opacity="1.000" stroke-linecap="round" stroke-linejoin="round" d="M -241.345 570.398 L -241.376 570.172 Q -241.412 569.965 -241.470 569.416 Q -241.527 568.866 -241.566 568.481 Q -241.606 568.096 -241.636 567.805 Q -241.666 567.513 -241.680 567.336 Q -241.695 567.158 -241.741 566.468 Q -241.788 565.778 -241.801 565.256 Q -241.814 564.734 -241.799 564.255 Q -241.784 563.777 -241.728 563.141 Q -241.672 562.506 -241.598 562.032 Q -241.524 561.558 -241.403 561.008 Q -241.282 560.459 -241.133 559.878 Q -240.985 559.296 -240.890 558.990 Q -240.794 558.684 -240.686 558.375 Q -240.577 558.066 -240.368 557.538 Q -240.158 557.010 -239.956 556.585 Q -239.755 556.160 -239.575 555.836 Q -239.396 555.511 -238.993 554.895 Q -238.591 554.278 -238.234 553.828 Q -237.878 553.378 -237.605 553.077 Q -237.332 552.776 -237.108 552.548 Q -236.884 552.319 -236.812 552.250 Q -236.740 552.182 -236.203 551.709 Q -235.667 551.236 -235.402 551.028 Q -235.137 550.820 -234.817 550.598 Q -234.497 550.375 -233.996 550.059 Q -233.495 549.742 -233.145 549.555 Q -232.795 549.369 -232.404 549.189 Q -232.013 549.009 -231.723 548.887 Q -231.432 548.765 -230.799 548.537 Q -230.167 548.309 -229.340 548.081 Q -228.513 547.852 -228.063 547.752 Q -227.614 547.652 -227.070 547.547 Q -226.527 547.441 -226.079 547.372 Q -225.632 547.304 -225.047 547.230 Q -224.463 547.156 -224.160 547.123 Q -223.856 547.091 -223.219 547.050 Q -222.582 547.009 -222.249 546.993 Q -221.917 546.976 -221.525 546.953 Q -221.133 546.930 -220.576 546.895 Q -220.018 546.859 -219.540 546.831 Q -219.061 546.802 -218.657 546.775 Q -218.253 546.747 -217.967 546.725 Q -217.680 546.702 -217.487 546.685 Q -217.294 546.667 -216.604 546.616 "></path>
    <path id="STROKE_eb9b2f13-fdd5-42cc-a6c4-33655865f68b" opacity="1.000" fill="none" stroke="#1c7aa2" stroke-width="19.000" stroke-opacity="1.000" stroke-linecap="round" stroke-linejoin="round" d="M 121.203 836.438 Q 121.350 836.419 122.121 836.312 Q 122.891 836.205 123.078 836.180 Q 123.265 836.155 123.450 836.127 Q 123.636 836.098 123.989 836.041 Q 124.343 835.984 124.724 835.929 Q 125.106 835.873 125.466 835.814 Q 125.826 835.756 126.054 835.713 Q 126.281 835.671 126.571 835.616 Q 126.861 835.562 127.391 835.459 Q 127.920 835.355 129.481 834.940 Q 131.042 834.525 131.443 834.384 Q 131.845 834.243 132.194 834.100 Q 132.543 833.958 132.977 833.752 Q 133.411 833.545 133.891 833.280 Q 134.371 833.015 134.701 832.812 Q 135.031 832.609 135.222 832.484 Q 135.412 832.358 135.504 832.293 Q 135.596 832.228 136.373 831.618 Q 137.150 831.008 137.316 830.858 Q 137.482 830.708 137.759 830.433 Q 138.037 830.159 138.470 829.661 Q 138.904 829.164 139.485 828.359 Q 140.065 827.554 140.444 826.919 Q 140.823 826.284 141.025 825.906 Q 141.226 825.527 141.550 824.873 Q 141.874 824.218 142.055 823.811 Q 142.237 823.404 142.437 822.899 Q 142.637 822.395 142.802 821.919 Q 142.966 821.444 143.152 820.793 Q 143.338 820.143 143.427 819.786 Q 143.516 819.429 143.661 818.769 Q 143.807 818.109 143.883 817.718 Q 143.960 817.327 144.056 816.827 Q 144.152 816.327 144.266 815.738 Q 144.380 815.150 144.465 814.700 Q 144.551 814.251 144.589 814.057 Q 144.628 813.863 144.680 813.584 Q 144.732 813.305 144.736 813.290 Q 144.740 813.274 144.782 813.038 Q 144.824 812.802 144.927 812.292 "></path>
    <path id="STROKE_a9339ea8-375e-4244-8a44-38d0dbf3b2a1" opacity="1.000" fill="none" stroke="#1c7aa2" stroke-width="19.000" stroke-opacity="1.000" stroke-linecap="round" stroke-linejoin="round" d="M 121.087 546.729 Q 121.318 546.717 121.539 546.693 Q 121.761 546.670 122.157 546.640 Q 122.554 546.610 122.984 546.601 Q 123.415 546.592 124.028 546.638 Q 124.642 546.683 125.111 546.754 Q 125.580 546.825 126.051 546.918 Q 126.521 547.011 126.885 547.102 Q 127.250 547.193 127.561 547.280 Q 127.871 547.368 128.144 547.451 Q 128.417 547.533 129.028 547.742 Q 129.640 547.951 129.949 548.068 Q 130.258 548.186 130.588 548.318 Q 130.917 548.450 131.200 548.569 Q 131.483 548.688 131.998 548.924 Q 132.513 549.161 132.888 549.357 Q 133.264 549.553 133.527 549.708 Q 133.790 549.862 134.092 550.044 Q 134.394 550.225 134.655 550.395 Q 134.916 550.564 135.386 550.906 Q 135.857 551.247 136.101 551.442 Q 136.345 551.635 136.697 551.941 Q 137.049 552.246 137.488 552.664 Q 137.928 553.083 138.192 553.352 Q 138.457 553.622 138.869 554.068 Q 139.281 554.514 139.503 554.773 Q 139.726 555.031 139.876 555.212 Q 140.026 555.393 140.238 555.667 Q 140.450 555.940 140.735 556.342 Q 141.020 556.744 141.115 556.883 Q 141.209 557.022 141.530 557.575 Q 141.850 558.128 142.012 558.446 Q 142.173 558.765 142.366 559.185 Q 142.559 559.606 142.871 560.421 Q 143.182 561.235 143.437 562.057 Q 143.691 562.880 143.803 563.312 Q 143.914 563.745 144.009 564.183 Q 144.105 564.621 144.187 565.064 Q 144.268 565.508 144.339 565.985 Q 144.409 566.462 144.412 566.484 Q 144.416 566.506 144.474 567.026 Q 144.533 567.546 144.555 567.786 Q 144.578 568.025 144.596 568.316 Q 144.614 568.606 144.624 568.762 Q 144.634 568.917 144.641 569.117 Q 144.648 569.316 144.653 569.490 Q 144.658 569.663 144.659 569.943 Q 144.660 570.222 144.669 570.343 Q 144.677 570.463 144.709 570.927 "></path>
    <path id="STROKE_a84e6b32-d0da-456d-b241-d618d2596896" opacity="1.000" fill="none" stroke="#1c7aa2" stroke-width="19.000" stroke-opacity="1.000" stroke-linecap="round" stroke-linejoin="round" d="M -189.646 794.945 Q -189.646 793.707 -189.646 789.892 Q -189.646 786.076 -189.646 783.772 Q -189.646 781.469 -189.646 780.405 Q -189.646 779.341 -189.646 778.059 Q -189.646 776.778 -189.646 774.931 Q -189.646 773.084 -189.646 771.930 Q -189.646 770.776 -189.646 770.193 Q -189.646 769.610 -189.646 768.959 Q -189.646 768.309 -189.646 766.024 Q -189.646 763.740 -189.646 760.450 Q -189.646 757.160 -189.646 752.397 Q -189.646 747.633 -189.646 745.347 Q -189.646 743.060 -189.646 742.097 Q -189.646 741.135 -189.646 741.047 Q -189.646 740.960 -189.646 740.579 Q -189.646 740.199 -189.646 737.784 Q -189.646 735.369 -189.646 734.826 Q -189.646 734.284 -189.646 732.028 Q -189.646 729.773 -189.646 724.522 "></path>
    <path id="STROKE_3a25c146-9269-4b46-a0e8-a84b5bb10e8d" opacity="1.000" fill="none" stroke="#1c7aa2" stroke-width="19.000" stroke-opacity="1.000" stroke-linecap="round" stroke-linejoin="round" d="M -177.412 711.635 Q -177.579 711.635 -173.043 711.635 Q -168.508 711.635 -166.139 711.635 Q -163.771 711.635 -162.716 711.635 Q -161.660 711.635 -161.310 711.635 Q -160.959 711.635 -160.547 711.635 Q -160.136 711.635 -155.507 711.635 Q -150.879 711.635 -148.101 711.635 Q -145.324 711.635 -142.124 711.635 Q -138.925 711.635 -136.814 711.635 Q -134.704 711.635 -133.952 711.635 Q -133.200 711.635 -132.115 711.635 Q -131.031 711.635 -129.839 711.635 Q -128.647 711.635 -127.960 711.635 Q -127.274 711.635 -126.267 711.635 Q -125.261 711.635 -124.575 711.635 Q -123.889 711.635 -123.441 711.635 Q -122.992 711.635 -122.677 711.635 Q -122.362 711.635 -122.171 711.635 Q -121.981 711.635 -121.822 711.635 Q -121.663 711.635 -121.730 711.635 Q -121.798 711.635 -121.353 711.635 Q -120.908 711.635 -119.971 711.635 Q -119.033 711.635 -118.225 711.635 Q -117.417 711.635 -117.063 711.635 Q -116.709 711.635 -116.484 711.635 Q -116.259 711.635 -114.773 711.635 Q -113.288 711.635 -111.399 711.635 Q -109.511 711.635 -108.543 711.635 Q -107.574 711.635 -107.154 711.635 Q -106.735 711.635 -106.534 711.635 Q -106.333 711.635 -106.365 711.635 Q -106.396 711.635 -106.407 711.635 Q -106.419 711.635 -106.295 711.635 Q -106.171 711.635 -106.054 711.635 Q -105.938 711.635 -105.821 711.635 "></path>
    <path id="STROKE_a8e02eec-9ea4-4ef5-8968-400af060d7e8" opacity="1.000" fill="none" stroke="#1c7aa2" stroke-width="19.000" stroke-opacity="1.000" stroke-linecap="round" stroke-linejoin="round" d="M -93.112 723.540 Q -93.112 723.444 -93.112 725.303 Q -93.112 727.162 -93.112 728.580 Q -93.112 729.997 -93.112 730.752 Q -93.112 731.507 -93.112 731.569 Q -93.112 731.630 -93.112 732.068 Q -93.112 732.506 -93.112 732.809 Q -93.112 733.112 -93.112 733.360 Q -93.112 733.607 -93.112 733.543 Q -93.112 733.479 -93.112 735.789 Q -93.112 738.100 -93.112 739.928 Q -93.112 741.757 -93.112 742.951 Q -93.112 744.145 -93.112 745.833 Q -93.112 747.521 -93.112 749.796 Q -93.112 752.072 -93.112 753.397 Q -93.112 754.722 -93.112 756.374 Q -93.112 758.026 -93.112 759.832 Q -93.112 761.638 -93.112 763.232 Q -93.112 764.827 -93.112 765.969 Q -93.112 767.112 -93.112 767.673 Q -93.112 768.235 -93.112 769.051 Q -93.112 769.866 -93.112 770.134 Q -93.112 770.401 -93.112 770.964 Q -93.112 771.526 -93.112 772.261 Q -93.112 772.996 -93.112 773.328 Q -93.112 773.661 -93.112 774.621 Q -93.112 775.581 -93.112 776.772 Q -93.112 777.964 -93.112 778.622 Q -93.112 779.281 -93.112 779.708 Q -93.112 780.135 -93.112 780.036 Q -93.112 779.937 -93.112 780.462 Q -93.112 780.987 -93.112 781.840 Q -93.112 782.693 -93.112 783.196 Q -93.112 783.700 -93.112 784.213 Q -93.112 784.726 -93.112 785.579 Q -93.112 786.432 -93.112 787.010 Q -93.112 787.588 -93.112 788.659 Q -93.112 789.730 -93.112 790.538 Q -93.112 791.346 -93.112 792.247 Q -93.112 793.148 -93.112 793.650 Q -93.112 794.153 -93.112 794.529 Q -93.112 794.905 -93.112 794.957 Q -93.112 795.008 -93.112 795.053 Q -93.112 795.098 -93.112 795.257 Q -93.112 795.416 -93.112 795.417 Q -93.112 795.417 -93.112 795.409 Q -93.112 795.401 -93.112 795.528 Q -93.112 795.655 -93.112 795.654 Q -93.112 795.654 -93.112 795.652 Q -93.112 795.700 -93.112 795.871 "></path>
    <path id="STROKE_76aff9fc-2c14-4d3c-8c24-5212ccbcca5c" opacity="1.000" fill="none" stroke="#1c7aa2" stroke-width="19.000" stroke-opacity="1.000" stroke-linecap="round" stroke-linejoin="round" d="M -177.943 807.891 Q -177.844 807.891 -174.653 807.891 Q -171.463 807.891 -169.251 807.891 Q -167.039 807.891 -166.054 807.891 Q -165.069 807.891 -163.984 807.891 Q -162.899 807.891 -162.288 807.891 Q -161.677 807.891 -161.677 807.891 Q -161.676 807.891 -161.024 807.891 Q -160.371 807.891 -157.761 807.891 Q -155.151 807.891 -153.619 807.891 Q -152.086 807.891 -151.053 807.891 Q -150.020 807.891 -148.904 807.891 Q -147.788 807.891 -146.890 807.891 Q -145.993 807.891 -142.674 807.891 Q -139.356 807.891 -136.964 807.891 Q -134.572 807.891 -133.410 807.891 Q -132.248 807.891 -130.077 807.891 Q -127.906 807.891 -125.695 807.891 Q -123.485 807.891 -120.265 807.891 Q -117.046 807.891 -114.798 807.891 Q -112.550 807.891 -110.649 807.891 Q -108.748 807.891 -107.889 807.891 Q -107.030 807.891 -106.392 807.891 Q -105.755 807.891 -105.403 807.891 "></path>
    <path id="STROKE_7e27a948-0819-41d6-a60d-8cf11778b83d" opacity="1.000" fill="none" stroke="#1c7aa2" stroke-width="19.000" stroke-opacity="1.000" stroke-linecap="round" stroke-linejoin="round" d="M -189.886 795.414 Q -189.900 795.546 -189.906 795.648 Q -189.913 795.750 -189.918 795.906 Q -189.923 796.061 -189.938 796.397 Q -189.953 796.734 -189.956 796.894 Q -189.958 797.055 -189.956 797.206 Q -189.954 797.357 -189.942 797.644 Q -189.930 797.931 -189.907 798.232 Q -189.883 798.533 -189.869 798.684 Q -189.854 798.836 -189.827 799.077 Q -189.800 799.318 -189.607 800.297 Q -189.414 801.277 -189.268 801.700 Q -189.122 802.123 -188.963 802.478 Q -188.803 802.833 -188.701 803.025 Q -188.598 803.218 -188.423 803.511 Q -188.249 803.805 -188.002 804.144 Q -187.754 804.483 -187.641 804.616 Q -187.528 804.749 -187.353 804.940 Q -187.177 805.130 -186.782 805.497 Q -186.388 805.863 -186.307 805.928 Q -186.226 805.992 -186.105 806.081 Q -185.984 806.169 -185.879 806.238 Q -185.773 806.308 -185.637 806.390 Q -185.500 806.471 -185.178 806.642 Q -184.855 806.813 -184.391 807.008 Q -183.927 807.202 -183.779 807.253 Q -183.632 807.303 -183.385 807.370 Q -183.139 807.437 -182.818 807.505 Q -182.498 807.573 -182.315 807.603 Q -182.131 807.633 -181.751 807.683 Q -181.371 807.733 -181.096 807.763 Q -180.820 807.793 -180.269 807.819 Q -179.717 807.846 -179.055 807.849 Q -178.393 807.852 -178.303 807.848 Q -178.213 807.845 -177.935 807.839 Q -177.657 807.833 -177.531 807.828 "></path>
    <path id="STROKE_f3e03249-ed4a-47e7-90df-e0f2a05905e4" opacity="1.000" fill="none" stroke="#1c7aa2" stroke-width="19.000" stroke-opacity="1.000" stroke-linecap="round" stroke-linejoin="round" d="M -105.318 808.386 Q -104.967 808.318 -104.363 808.206 Q -103.760 808.094 -103.240 807.988 Q -102.720 807.882 -102.059 807.713 Q -101.399 807.544 -101.006 807.428 Q -100.614 807.313 -100.476 807.270 Q -100.337 807.228 -99.834 807.019 Q -99.330 806.810 -98.971 806.640 Q -98.613 806.471 -98.305 806.293 Q -97.996 806.116 -97.456 805.705 Q -96.917 805.294 -96.786 805.174 Q -96.655 805.053 -96.536 804.929 Q -96.418 804.806 -96.058 804.335 Q -95.697 803.865 -95.416 803.397 Q -95.135 802.929 -95.042 802.758 Q -94.949 802.588 -94.757 802.165 Q -94.566 801.742 -94.459 801.453 Q -94.351 801.163 -94.278 800.947 Q -94.206 800.730 -94.047 800.218 Q -93.889 799.705 -93.772 799.238 Q -93.655 798.770 -93.602 798.509 Q -93.549 798.248 -93.503 798.037 Q -93.457 797.827 -93.334 797.348 Q -93.210 796.868 -93.022 795.982 "></path>
    <path id="STROKE_3fe30623-f698-462a-b7c7-08927856d671" opacity="1.000" fill="none" stroke="#1c7aa2" stroke-width="19.000" stroke-opacity="1.000" stroke-linecap="round" stroke-linejoin="round" d="M -189.628 724.302 L -189.670 724.024 Q -189.674 723.882 -189.709 723.211 Q -189.743 722.541 -189.747 722.189 Q -189.750 721.837 -189.731 721.423 Q -189.712 721.009 -189.641 720.430 Q -189.571 719.850 -189.518 719.544 Q -189.464 719.238 -189.438 719.111 Q -189.411 718.984 -189.378 718.856 Q -189.345 718.727 -189.320 718.627 Q -189.294 718.527 -189.209 718.207 Q -189.123 717.886 -189.053 717.659 Q -188.984 717.431 -188.858 717.068 Q -188.733 716.704 -188.613 716.408 Q -188.494 716.111 -188.393 715.895 Q -188.293 715.679 -187.820 714.933 Q -187.347 714.187 -187.163 713.979 Q -186.980 713.771 -186.718 713.532 Q -186.456 713.293 -186.095 713.036 Q -185.733 712.780 -185.426 712.617 Q -185.120 712.454 -184.840 712.340 Q -184.561 712.225 -184.366 712.161 Q -184.171 712.096 -183.661 711.970 Q -183.150 711.844 -183.128 711.839 Q -183.106 711.834 -182.768 711.783 Q -182.431 711.731 -182.168 711.701 Q -181.906 711.671 -181.713 711.653 Q -181.521 711.635 -181.333 711.620 Q -181.145 711.605 -180.936 711.598 Q -180.727 711.590 -180.452 711.590 Q -180.177 711.591 -179.952 711.597 Q -179.727 711.603 -179.509 711.613 Q -179.291 711.623 -179.018 711.635 Q -178.746 711.647 -178.478 711.659 Q -178.210 711.671 -178.164 711.672 Q -178.118 711.674 -177.228 711.722 L -176.960 711.740 "></path>
    <path id="STROKE_ceef8438-b99f-47de-b34c-3dc0e5d0ae3e" opacity="1.000" fill="none" stroke="#1c7aa2" stroke-width="19.000" stroke-opacity="1.000" stroke-linecap="round" stroke-linejoin="round" d="M -105.389 711.529 Q -105.331 711.527 -105.149 711.541 Q -104.896 711.533 -104.750 711.532 Q -104.603 711.532 -104.302 711.532 Q -104.000 711.531 -103.834 711.534 Q -103.667 711.536 -102.869 711.582 Q -102.070 711.628 -101.810 711.657 Q -101.550 711.687 -101.386 711.708 Q -101.222 711.730 -101.021 711.756 Q -100.820 711.783 -100.517 711.825 Q -100.215 711.867 -99.845 711.935 Q -99.476 712.003 -99.202 712.063 Q -98.927 712.124 -98.791 712.159 Q -98.656 712.195 -98.422 712.260 Q -98.188 712.326 -97.928 712.413 Q -97.668 712.499 -97.546 712.548 Q -97.423 712.597 -97.303 712.651 Q -97.182 712.705 -96.907 712.852 Q -96.633 713.000 -96.431 713.136 Q -96.229 713.272 -96.074 713.394 Q -95.920 713.517 -95.692 713.729 Q -95.465 713.942 -95.118 714.370 Q -94.772 714.799 -94.484 715.303 Q -94.197 715.807 -94.144 715.922 Q -94.091 716.038 -93.973 716.318 Q -93.854 716.599 -93.738 716.929 Q -93.622 717.260 -93.540 717.551 Q -93.457 717.841 -93.386 718.156 Q -93.315 718.471 -93.239 718.884 Q -93.163 719.297 -93.136 719.485 Q -93.109 719.672 -93.069 720.057 Q -93.029 720.441 -93.007 720.704 Q -92.985 720.966 -92.979 721.087 Q -92.972 721.209 -92.957 721.631 Q -92.942 722.052 -92.941 722.257 Q -92.941 722.463 -92.939 722.507 Q -92.938 722.552 -92.940 722.612 Q -92.942 722.673 -92.957 722.831 Q -92.972 722.990 -92.974 723.023 Q -92.976 723.057 -92.978 723.143 Q -92.980 723.230 -92.975 723.308 Q -92.970 723.387 -92.965 723.455 Q -92.960 723.522 -92.966 723.576 Q -92.971 723.631 -92.982 723.946 "></path>
    <path id="STROKE_6717b1d9-6a42-4452-8e9e-57623482deaf" opacity="1.000" fill="none" stroke="#1c7aa2" stroke-width="19.000" stroke-opacity="1.000" stroke-linecap="round" stroke-linejoin="round" d="M -188.859 658.118 Q -188.859 656.880 -188.859 653.065 Q -188.859 649.249 -188.859 646.945 Q -188.859 644.642 -188.859 643.578 Q -188.859 642.514 -188.859 641.232 Q -188.859 639.951 -188.859 638.104 Q -188.859 636.257 -188.859 635.103 Q -188.859 633.948 -188.859 633.366 Q -188.859 632.783 -188.859 632.132 Q -188.859 631.482 -188.859 629.197 Q -188.859 626.913 -188.859 623.623 Q -188.859 620.333 -188.859 615.570 Q -188.859 610.806 -188.859 608.520 Q -188.859 606.233 -188.859 605.270 Q -188.859 604.307 -188.859 604.220 Q -188.859 604.133 -188.859 603.752 Q -188.859 603.372 -188.859 600.957 Q -188.859 598.542 -188.859 597.999 Q -188.859 597.457 -188.859 595.201 Q -188.859 592.946 -188.859 587.695 "></path>
    <path id="STROKE_999ba921-4f35-4519-a8ba-c807171b0fbe" opacity="1.000" fill="none" stroke="#1c7aa2" stroke-width="19.000" stroke-opacity="1.000" stroke-linecap="round" stroke-linejoin="round" d="M -176.626 574.808 Q -176.793 574.808 -172.257 574.808 Q -167.721 574.808 -165.353 574.808 Q -162.985 574.808 -161.929 574.808 Q -160.874 574.808 -160.523 574.808 Q -160.172 574.808 -159.761 574.808 Q -159.349 574.808 -154.721 574.808 Q -150.093 574.808 -147.315 574.808 Q -144.537 574.808 -141.338 574.808 Q -138.138 574.808 -136.028 574.808 Q -133.917 574.808 -133.165 574.808 Q -132.413 574.808 -131.329 574.808 Q -130.244 574.808 -129.052 574.808 Q -127.861 574.808 -127.174 574.808 Q -126.487 574.808 -125.481 574.808 Q -124.475 574.808 -123.789 574.808 Q -123.102 574.808 -122.654 574.808 Q -122.206 574.808 -121.891 574.808 Q -121.576 574.808 -121.385 574.808 Q -121.194 574.808 -121.035 574.808 Q -120.876 574.808 -120.944 574.808 Q -121.012 574.808 -120.567 574.808 Q -120.122 574.808 -119.184 574.808 Q -118.247 574.808 -117.439 574.808 Q -116.630 574.808 -116.276 574.808 Q -115.922 574.808 -115.697 574.808 Q -115.473 574.808 -113.987 574.808 Q -112.501 574.808 -110.613 574.808 Q -108.725 574.808 -107.756 574.808 Q -106.787 574.808 -106.368 574.808 Q -105.949 574.808 -105.748 574.808 Q -105.547 574.808 -105.578 574.808 Q -105.609 574.808 -105.621 574.808 Q -105.633 574.808 -105.508 574.808 Q -105.384 574.808 -105.268 574.808 Q -105.152 574.808 -105.034 574.808 "></path>
    <path id="STROKE_a541cb51-0d86-4626-9984-07eb7dec5dad" opacity="1.000" fill="none" stroke="#1c7aa2" stroke-width="19.000" stroke-opacity="1.000" stroke-linecap="round" stroke-linejoin="round" d="M -92.326 586.713 Q -92.326 586.617 -92.326 588.476 Q -92.326 590.335 -92.326 591.753 Q -92.326 593.170 -92.326 593.925 Q -92.326 594.680 -92.326 594.742 Q -92.326 594.803 -92.326 595.241 Q -92.326 595.679 -92.326 595.982 Q -92.326 596.285 -92.326 596.533 Q -92.326 596.780 -92.326 596.716 Q -92.326 596.652 -92.326 598.962 Q -92.326 601.273 -92.326 603.101 Q -92.326 604.930 -92.326 606.124 Q -92.326 607.318 -92.326 609.006 Q -92.326 610.694 -92.326 612.969 Q -92.326 615.245 -92.326 616.570 Q -92.326 617.895 -92.326 619.547 Q -92.326 621.199 -92.326 623.005 Q -92.326 624.811 -92.326 626.405 Q -92.326 628.000 -92.326 629.142 Q -92.326 630.285 -92.326 630.846 Q -92.326 631.408 -92.326 632.224 Q -92.326 633.039 -92.326 633.307 Q -92.326 633.574 -92.326 634.136 Q -92.326 634.699 -92.326 635.434 Q -92.326 636.169 -92.326 636.501 Q -92.326 636.834 -92.326 637.794 Q -92.326 638.754 -92.326 639.945 Q -92.326 641.137 -92.326 641.795 Q -92.326 642.454 -92.326 642.881 Q -92.326 643.308 -92.326 643.209 Q -92.326 643.110 -92.326 643.635 Q -92.326 644.160 -92.326 645.013 Q -92.326 645.866 -92.326 646.369 Q -92.326 646.873 -92.326 647.386 Q -92.326 647.899 -92.326 648.752 Q -92.326 649.605 -92.326 650.183 Q -92.326 650.761 -92.326 651.832 Q -92.326 652.903 -92.326 653.711 Q -92.326 654.519 -92.326 655.420 Q -92.326 656.321 -92.326 656.823 Q -92.326 657.326 -92.326 657.702 Q -92.326 658.078 -92.326 658.130 Q -92.326 658.181 -92.326 658.226 Q -92.326 658.271 -92.326 658.430 Q -92.326 658.589 -92.326 658.589 Q -92.326 658.590 -92.326 658.582 Q -92.326 658.574 -92.326 658.701 Q -92.326 658.828 -92.326 658.827 Q -92.326 658.827 -92.326 658.825 Q -92.326 658.873 -92.326 659.044 "></path>
    <path id="STROKE_1228b2fb-a619-4bdf-b8c1-f5a1a43ba31c" opacity="1.000" fill="none" stroke="#1c7aa2" stroke-width="19.000" stroke-opacity="1.000" stroke-linecap="round" stroke-linejoin="round" d="M -177.156 671.064 Q -177.057 671.064 -173.867 671.064 Q -170.676 671.064 -168.465 671.064 Q -166.253 671.064 -165.268 671.064 Q -164.283 671.064 -163.198 671.064 Q -162.113 671.064 -161.502 671.064 Q -160.891 671.064 -160.890 671.064 Q -160.890 671.064 -160.237 671.064 Q -159.584 671.064 -156.974 671.064 Q -154.365 671.064 -152.832 671.064 Q -151.300 671.064 -150.267 671.064 Q -149.233 671.064 -148.117 671.064 Q -147.001 671.064 -146.104 671.064 Q -145.206 671.064 -141.888 671.064 Q -138.570 671.064 -136.178 671.064 Q -133.786 671.064 -132.624 671.064 Q -131.462 671.064 -129.291 671.064 Q -127.119 671.064 -124.909 671.064 Q -122.698 671.064 -119.479 671.064 Q -116.259 671.064 -114.011 671.064 Q -111.763 671.064 -109.863 671.064 Q -107.962 671.064 -107.103 671.064 Q -106.244 671.064 -105.606 671.064 Q -104.968 671.064 -104.616 671.064 "></path>
    <path id="STROKE_4e43c2e1-1b25-42d6-819f-4e1eb1f7bcba" opacity="1.000" fill="none" stroke="#1c7aa2" stroke-width="19.000" stroke-opacity="1.000" stroke-linecap="round" stroke-linejoin="round" d="M -189.100 658.587 Q -189.114 658.719 -189.120 658.821 Q -189.126 658.923 -189.131 659.079 Q -189.137 659.234 -189.152 659.570 Q -189.167 659.907 -189.169 660.067 Q -189.172 660.227 -189.170 660.379 Q -189.168 660.530 -189.156 660.817 Q -189.144 661.104 -189.120 661.405 Q -189.097 661.706 -189.082 661.857 Q -189.068 662.009 -189.041 662.250 Q -189.014 662.491 -188.821 663.470 Q -188.627 664.450 -188.482 664.873 Q -188.336 665.296 -188.176 665.651 Q -188.017 666.006 -187.914 666.198 Q -187.812 666.391 -187.637 666.684 Q -187.462 666.978 -187.215 667.317 Q -186.968 667.656 -186.855 667.789 Q -186.742 667.922 -186.566 668.113 Q -186.391 668.303 -185.996 668.670 Q -185.601 669.036 -185.521 669.101 Q -185.440 669.165 -185.319 669.254 Q -185.198 669.342 -185.092 669.411 Q -184.987 669.481 -184.850 669.562 Q -184.714 669.644 -184.391 669.815 Q -184.069 669.986 -183.605 670.181 Q -183.140 670.375 -182.993 670.426 Q -182.845 670.476 -182.599 670.543 Q -182.353 670.610 -182.032 670.678 Q -181.711 670.746 -181.528 670.776 Q -181.345 670.806 -180.965 670.856 Q -180.585 670.906 -180.309 670.936 Q -180.034 670.966 -179.482 670.992 Q -178.931 671.019 -178.269 671.022 Q -177.607 671.025 -177.517 671.021 Q -177.426 671.018 -177.149 671.012 Q -176.871 671.006 -176.745 671.001 "></path>
    <path id="STROKE_ec4ce5ad-32a0-4ddf-8128-6393a0929244" opacity="1.000" fill="none" stroke="#1c7aa2" stroke-width="19.000" stroke-opacity="1.000" stroke-linecap="round" stroke-linejoin="round" d="M -104.531 671.559 Q -104.181 671.491 -103.577 671.379 Q -102.973 671.267 -102.453 671.161 Q -101.934 671.055 -101.273 670.886 Q -100.612 670.717 -100.220 670.601 Q -99.827 670.486 -99.689 670.443 Q -99.551 670.401 -99.047 670.192 Q -98.543 669.983 -98.185 669.813 Q -97.827 669.644 -97.518 669.466 Q -97.210 669.289 -96.670 668.878 Q -96.130 668.467 -95.999 668.347 Q -95.868 668.226 -95.750 668.102 Q -95.632 667.979 -95.271 667.508 Q -94.910 667.038 -94.630 666.570 Q -94.349 666.102 -94.255 665.931 Q -94.162 665.761 -93.971 665.338 Q -93.780 664.915 -93.672 664.626 Q -93.565 664.336 -93.492 664.120 Q -93.419 663.903 -93.261 663.391 Q -93.103 662.878 -92.986 662.411 Q -92.869 661.943 -92.816 661.682 Q -92.763 661.421 -92.717 661.210 Q -92.671 661.000 -92.548 660.521 Q -92.424 660.041 -92.235 659.155 "></path>
    <path id="STROKE_067b9b04-c144-4d51-ba3e-195ddaee3b67" opacity="1.000" fill="none" stroke="#1c7aa2" stroke-width="19.000" stroke-opacity="1.000" stroke-linecap="round" stroke-linejoin="round" d="M -188.841 587.475 L -188.883 587.197 Q -188.888 587.055 -188.922 586.384 Q -188.957 585.714 -188.960 585.362 Q -188.964 585.010 -188.945 584.596 Q -188.925 584.182 -188.855 583.603 Q -188.784 583.023 -188.731 582.717 Q -188.678 582.411 -188.651 582.284 Q -188.625 582.157 -188.592 582.029 Q -188.559 581.900 -188.533 581.800 Q -188.508 581.700 -188.422 581.380 Q -188.337 581.059 -188.267 580.832 Q -188.197 580.604 -188.072 580.241 Q -187.947 579.877 -187.827 579.581 Q -187.707 579.284 -187.607 579.068 Q -187.506 578.852 -187.033 578.106 Q -186.560 577.360 -186.377 577.152 Q -186.193 576.944 -185.931 576.705 Q -185.670 576.466 -185.308 576.209 Q -184.947 575.953 -184.640 575.790 Q -184.333 575.627 -184.054 575.513 Q -183.774 575.398 -183.579 575.334 Q -183.385 575.269 -182.874 575.143 Q -182.364 575.017 -182.342 575.012 Q -182.319 575.007 -181.982 574.956 Q -181.644 574.904 -181.382 574.874 Q -181.119 574.844 -180.927 574.826 Q -180.735 574.808 -180.547 574.793 Q -180.359 574.778 -180.150 574.771 Q -179.941 574.763 -179.665 574.763 Q -179.390 574.764 -179.165 574.770 Q -178.940 574.776 -178.722 574.786 Q -178.504 574.796 -178.232 574.808 Q -177.960 574.820 -177.692 574.832 Q -177.423 574.844 -177.378 574.845 Q -177.332 574.847 -176.442 574.895 L -176.173 574.913 "></path>
    <path id="STROKE_0156faae-c900-43d3-9286-83fcd1642565" opacity="1.000" fill="none" stroke="#1c7aa2" stroke-width="19.000" stroke-opacity="1.000" stroke-linecap="round" stroke-linejoin="round" d="M -104.602 574.702 Q -104.544 574.700 -104.362 574.714 Q -104.110 574.706 -103.963 574.705 Q -103.817 574.705 -103.516 574.705 Q -103.214 574.704 -103.047 574.707 Q -102.881 574.709 -102.082 574.755 Q -101.284 574.801 -101.023 574.830 Q -100.763 574.860 -100.599 574.881 Q -100.435 574.903 -100.234 574.929 Q -100.033 574.956 -99.731 574.998 Q -99.428 575.040 -99.059 575.108 Q -98.690 575.175 -98.415 575.236 Q -98.141 575.297 -98.005 575.332 Q -97.869 575.368 -97.636 575.433 Q -97.402 575.499 -97.142 575.586 Q -96.882 575.672 -96.759 575.721 Q -96.636 575.770 -96.516 575.824 Q -96.396 575.878 -96.121 576.025 Q -95.846 576.173 -95.644 576.309 Q -95.443 576.445 -95.288 576.567 Q -95.133 576.690 -94.906 576.902 Q -94.679 577.115 -94.332 577.543 Q -93.985 577.972 -93.698 578.476 Q -93.410 578.980 -93.358 579.095 Q -93.305 579.211 -93.187 579.491 Q -93.068 579.772 -92.952 580.102 Q -92.836 580.433 -92.753 580.724 Q -92.670 581.014 -92.600 581.329 Q -92.529 581.644 -92.453 582.057 Q -92.376 582.470 -92.349 582.658 Q -92.322 582.845 -92.282 583.230 Q -92.242 583.614 -92.221 583.877 Q -92.199 584.139 -92.192 584.260 Q -92.186 584.382 -92.171 584.804 Q -92.155 585.225 -92.155 585.430 Q -92.154 585.635 -92.153 585.680 Q -92.152 585.724 -92.154 585.785 Q -92.156 585.846 -92.171 586.004 Q -92.186 586.163 -92.188 586.196 Q -92.190 586.229 -92.192 586.316 Q -92.194 586.403 -92.188 586.481 Q -92.183 586.560 -92.179 586.628 Q -92.174 586.695 -92.179 586.749 Q -92.185 586.804 -92.195 587.119 "></path>
    <path id="STROKE_41828213-31fe-4dc6-b0e9-ba28e7cba3ae" opacity="1.000" fill="none" stroke="#1c7aa2" stroke-width="19.000" stroke-opacity="1.000" stroke-linecap="round" stroke-linejoin="round" d="M -188.859 658.118 Q -188.859 656.880 -188.859 653.065 Q -188.859 649.249 -188.859 646.945 Q -188.859 644.642 -188.859 643.578 Q -188.859 642.514 -188.859 641.232 Q -188.859 639.951 -188.859 638.104 Q -188.859 636.257 -188.859 635.103 Q -188.859 633.948 -188.859 633.366 Q -188.859 632.783 -188.859 632.132 Q -188.859 631.482 -188.859 629.197 Q -188.859 626.913 -188.859 623.623 Q -188.859 620.333 -188.859 615.570 Q -188.859 610.806 -188.859 608.520 Q -188.859 606.233 -188.859 605.270 Q -188.859 604.307 -188.859 604.220 Q -188.859 604.133 -188.859 603.752 Q -188.859 603.372 -188.859 600.957 Q -188.859 598.542 -188.859 597.999 Q -188.859 597.457 -188.859 595.201 Q -188.859 592.946 -188.859 587.695 "></path>
    <path id="STROKE_e6503ff7-5b00-40b9-bf34-955becbb3b30" opacity="1.000" fill="none" stroke="#1c7aa2" stroke-width="19.000" stroke-opacity="1.000" stroke-linecap="round" stroke-linejoin="round" d="M -176.626 574.808 Q -176.793 574.808 -172.257 574.808 Q -167.721 574.808 -165.353 574.808 Q -162.985 574.808 -161.929 574.808 Q -160.874 574.808 -160.523 574.808 Q -160.172 574.808 -159.761 574.808 Q -159.349 574.808 -154.721 574.808 Q -150.093 574.808 -147.315 574.808 Q -144.537 574.808 -141.338 574.808 Q -138.138 574.808 -136.028 574.808 Q -133.917 574.808 -133.165 574.808 Q -132.413 574.808 -131.329 574.808 Q -130.244 574.808 -129.052 574.808 Q -127.861 574.808 -127.174 574.808 Q -126.487 574.808 -125.481 574.808 Q -124.475 574.808 -123.789 574.808 Q -123.102 574.808 -122.654 574.808 Q -122.206 574.808 -121.891 574.808 Q -121.576 574.808 -121.385 574.808 Q -121.194 574.808 -121.035 574.808 Q -120.876 574.808 -120.944 574.808 Q -121.012 574.808 -120.567 574.808 Q -120.122 574.808 -119.184 574.808 Q -118.247 574.808 -117.439 574.808 Q -116.630 574.808 -116.276 574.808 Q -115.922 574.808 -115.697 574.808 Q -115.473 574.808 -113.987 574.808 Q -112.501 574.808 -110.613 574.808 Q -108.725 574.808 -107.756 574.808 Q -106.787 574.808 -106.368 574.808 Q -105.949 574.808 -105.748 574.808 Q -105.547 574.808 -105.578 574.808 Q -105.609 574.808 -105.621 574.808 Q -105.633 574.808 -105.508 574.808 Q -105.384 574.808 -105.268 574.808 Q -105.152 574.808 -105.034 574.808 "></path>
    <path id="STROKE_4d22fd14-1639-49be-a27f-ff0addb9fd59" opacity="1.000" fill="none" stroke="#1c7aa2" stroke-width="19.000" stroke-opacity="1.000" stroke-linecap="round" stroke-linejoin="round" d="M -92.326 586.713 Q -92.326 586.617 -92.326 588.476 Q -92.326 590.335 -92.326 591.753 Q -92.326 593.170 -92.326 593.925 Q -92.326 594.680 -92.326 594.742 Q -92.326 594.803 -92.326 595.241 Q -92.326 595.679 -92.326 595.982 Q -92.326 596.285 -92.326 596.533 Q -92.326 596.780 -92.326 596.716 Q -92.326 596.652 -92.326 598.962 Q -92.326 601.273 -92.326 603.101 Q -92.326 604.930 -92.326 606.124 Q -92.326 607.318 -92.326 609.006 Q -92.326 610.694 -92.326 612.969 Q -92.326 615.245 -92.326 616.570 Q -92.326 617.895 -92.326 619.547 Q -92.326 621.199 -92.326 623.005 Q -92.326 624.811 -92.326 626.405 Q -92.326 628.000 -92.326 629.142 Q -92.326 630.285 -92.326 630.846 Q -92.326 631.408 -92.326 632.224 Q -92.326 633.039 -92.326 633.307 Q -92.326 633.574 -92.326 634.136 Q -92.326 634.699 -92.326 635.434 Q -92.326 636.169 -92.326 636.501 Q -92.326 636.834 -92.326 637.794 Q -92.326 638.754 -92.326 639.945 Q -92.326 641.137 -92.326 641.795 Q -92.326 642.454 -92.326 642.881 Q -92.326 643.308 -92.326 643.209 Q -92.326 643.110 -92.326 643.635 Q -92.326 644.160 -92.326 645.013 Q -92.326 645.866 -92.326 646.369 Q -92.326 646.873 -92.326 647.386 Q -92.326 647.899 -92.326 648.752 Q -92.326 649.605 -92.326 650.183 Q -92.326 650.761 -92.326 651.832 Q -92.326 652.903 -92.326 653.711 Q -92.326 654.519 -92.326 655.420 Q -92.326 656.321 -92.326 656.823 Q -92.326 657.326 -92.326 657.702 Q -92.326 658.078 -92.326 658.130 Q -92.326 658.181 -92.326 658.226 Q -92.326 658.271 -92.326 658.430 Q -92.326 658.589 -92.326 658.589 Q -92.326 658.590 -92.326 658.582 Q -92.326 658.574 -92.326 658.701 Q -92.326 658.828 -92.326 658.827 Q -92.326 658.827 -92.326 658.825 Q -92.326 658.873 -92.326 659.044 "></path>
    <path id="STROKE_875b884e-6abe-4da4-b39f-9ab495ab9b88" opacity="1.000" fill="none" stroke="#1c7aa2" stroke-width="19.000" stroke-opacity="1.000" stroke-linecap="round" stroke-linejoin="round" d="M -177.156 671.064 Q -177.057 671.064 -173.867 671.064 Q -170.676 671.064 -168.465 671.064 Q -166.253 671.064 -165.268 671.064 Q -164.283 671.064 -163.198 671.064 Q -162.113 671.064 -161.502 671.064 Q -160.891 671.064 -160.890 671.064 Q -160.890 671.064 -160.237 671.064 Q -159.584 671.064 -156.974 671.064 Q -154.365 671.064 -152.832 671.064 Q -151.300 671.064 -150.267 671.064 Q -149.233 671.064 -148.117 671.064 Q -147.001 671.064 -146.104 671.064 Q -145.206 671.064 -141.888 671.064 Q -138.570 671.064 -136.178 671.064 Q -133.786 671.064 -132.624 671.064 Q -131.462 671.064 -129.291 671.064 Q -127.119 671.064 -124.909 671.064 Q -122.698 671.064 -119.479 671.064 Q -116.259 671.064 -114.011 671.064 Q -111.763 671.064 -109.863 671.064 Q -107.962 671.064 -107.103 671.064 Q -106.244 671.064 -105.606 671.064 Q -104.968 671.064 -104.616 671.064 "></path>
    <path id="STROKE_e6c7d1f2-9589-4884-b07b-020a340a305b" opacity="1.000" fill="none" stroke="#1c7aa2" stroke-width="19.000" stroke-opacity="1.000" stroke-linecap="round" stroke-linejoin="round" d="M -189.100 658.587 Q -189.114 658.719 -189.120 658.821 Q -189.126 658.923 -189.131 659.079 Q -189.137 659.234 -189.152 659.570 Q -189.167 659.907 -189.169 660.067 Q -189.172 660.227 -189.170 660.379 Q -189.168 660.530 -189.156 660.817 Q -189.144 661.104 -189.120 661.405 Q -189.097 661.706 -189.082 661.857 Q -189.068 662.009 -189.041 662.250 Q -189.014 662.491 -188.821 663.470 Q -188.627 664.450 -188.482 664.873 Q -188.336 665.296 -188.176 665.651 Q -188.017 666.006 -187.914 666.198 Q -187.812 666.391 -187.637 666.684 Q -187.462 666.978 -187.215 667.317 Q -186.968 667.656 -186.855 667.789 Q -186.742 667.922 -186.566 668.113 Q -186.391 668.303 -185.996 668.670 Q -185.601 669.036 -185.521 669.101 Q -185.440 669.165 -185.319 669.254 Q -185.198 669.342 -185.092 669.411 Q -184.987 669.481 -184.850 669.562 Q -184.714 669.644 -184.391 669.815 Q -184.069 669.986 -183.605 670.181 Q -183.140 670.375 -182.993 670.426 Q -182.845 670.476 -182.599 670.543 Q -182.353 670.610 -182.032 670.678 Q -181.711 670.746 -181.528 670.776 Q -181.345 670.806 -180.965 670.856 Q -180.585 670.906 -180.309 670.936 Q -180.034 670.966 -179.482 670.992 Q -178.931 671.019 -178.269 671.022 Q -177.607 671.025 -177.517 671.021 Q -177.426 671.018 -177.149 671.012 Q -176.871 671.006 -176.745 671.001 "></path>
    <path id="STROKE_aa710f8a-e843-499a-8de6-e005e1bd3391" opacity="1.000" fill="none" stroke="#1c7aa2" stroke-width="19.000" stroke-opacity="1.000" stroke-linecap="round" stroke-linejoin="round" d="M -104.531 671.559 Q -104.181 671.491 -103.577 671.379 Q -102.973 671.267 -102.453 671.161 Q -101.934 671.055 -101.273 670.886 Q -100.612 670.717 -100.220 670.601 Q -99.827 670.486 -99.689 670.443 Q -99.551 670.401 -99.047 670.192 Q -98.543 669.983 -98.185 669.813 Q -97.827 669.644 -97.518 669.466 Q -97.210 669.289 -96.670 668.878 Q -96.130 668.467 -95.999 668.347 Q -95.868 668.226 -95.750 668.102 Q -95.632 667.979 -95.271 667.508 Q -94.910 667.038 -94.630 666.570 Q -94.349 666.102 -94.255 665.931 Q -94.162 665.761 -93.971 665.338 Q -93.780 664.915 -93.672 664.626 Q -93.565 664.336 -93.492 664.120 Q -93.419 663.903 -93.261 663.391 Q -93.103 662.878 -92.986 662.411 Q -92.869 661.943 -92.816 661.682 Q -92.763 661.421 -92.717 661.210 Q -92.671 661.000 -92.548 660.521 Q -92.424 660.041 -92.235 659.155 "></path>
    <path id="STROKE_3f11edce-eb70-436e-be5e-e34e2f53affe" opacity="1.000" fill="none" stroke="#1c7aa2" stroke-width="19.000" stroke-opacity="1.000" stroke-linecap="round" stroke-linejoin="round" d="M -188.841 587.475 L -188.883 587.197 Q -188.888 587.055 -188.922 586.384 Q -188.957 585.714 -188.960 585.362 Q -188.964 585.010 -188.945 584.596 Q -188.925 584.182 -188.855 583.603 Q -188.784 583.023 -188.731 582.717 Q -188.678 582.411 -188.651 582.284 Q -188.625 582.157 -188.592 582.029 Q -188.559 581.900 -188.533 581.800 Q -188.508 581.700 -188.422 581.380 Q -188.337 581.059 -188.267 580.832 Q -188.197 580.604 -188.072 580.241 Q -187.947 579.877 -187.827 579.581 Q -187.707 579.284 -187.607 579.068 Q -187.506 578.852 -187.033 578.106 Q -186.560 577.360 -186.377 577.152 Q -186.193 576.944 -185.931 576.705 Q -185.670 576.466 -185.308 576.209 Q -184.947 575.953 -184.640 575.790 Q -184.333 575.627 -184.054 575.513 Q -183.774 575.398 -183.579 575.334 Q -183.385 575.269 -182.874 575.143 Q -182.364 575.017 -182.342 575.012 Q -182.319 575.007 -181.982 574.956 Q -181.644 574.904 -181.382 574.874 Q -181.119 574.844 -180.927 574.826 Q -180.735 574.808 -180.547 574.793 Q -180.359 574.778 -180.150 574.771 Q -179.941 574.763 -179.665 574.763 Q -179.390 574.764 -179.165 574.770 Q -178.940 574.776 -178.722 574.786 Q -178.504 574.796 -178.232 574.808 Q -177.960 574.820 -177.692 574.832 Q -177.423 574.844 -177.378 574.845 Q -177.332 574.847 -176.442 574.895 L -176.173 574.913 "></path>
    <path id="STROKE_339e93b9-cf46-4cbe-a479-30b50b907550" opacity="1.000" fill="none" stroke="#1c7aa2" stroke-width="19.000" stroke-opacity="1.000" stroke-linecap="round" stroke-linejoin="round" d="M -104.602 574.702 Q -104.544 574.700 -104.362 574.714 Q -104.110 574.706 -103.963 574.705 Q -103.817 574.705 -103.516 574.705 Q -103.214 574.704 -103.047 574.707 Q -102.881 574.709 -102.082 574.755 Q -101.284 574.801 -101.023 574.830 Q -100.763 574.860 -100.599 574.881 Q -100.435 574.903 -100.234 574.929 Q -100.033 574.956 -99.731 574.998 Q -99.428 575.040 -99.059 575.108 Q -98.690 575.175 -98.415 575.236 Q -98.141 575.297 -98.005 575.332 Q -97.869 575.368 -97.636 575.433 Q -97.402 575.499 -97.142 575.586 Q -96.882 575.672 -96.759 575.721 Q -96.636 575.770 -96.516 575.824 Q -96.396 575.878 -96.121 576.025 Q -95.846 576.173 -95.644 576.309 Q -95.443 576.445 -95.288 576.567 Q -95.133 576.690 -94.906 576.902 Q -94.679 577.115 -94.332 577.543 Q -93.985 577.972 -93.698 578.476 Q -93.410 578.980 -93.358 579.095 Q -93.305 579.211 -93.187 579.491 Q -93.068 579.772 -92.952 580.102 Q -92.836 580.433 -92.753 580.724 Q -92.670 581.014 -92.600 581.329 Q -92.529 581.644 -92.453 582.057 Q -92.376 582.470 -92.349 582.658 Q -92.322 582.845 -92.282 583.230 Q -92.242 583.614 -92.221 583.877 Q -92.199 584.139 -92.192 584.260 Q -92.186 584.382 -92.171 584.804 Q -92.155 585.225 -92.155 585.430 Q -92.154 585.635 -92.153 585.680 Q -92.152 585.724 -92.154 585.785 Q -92.156 585.846 -92.171 586.004 Q -92.186 586.163 -92.188 586.196 Q -92.190 586.229 -92.192 586.316 Q -92.194 586.403 -92.188 586.481 Q -92.183 586.560 -92.179 586.628 Q -92.174 586.695 -92.179 586.749 Q -92.185 586.804 -92.195 587.119 "></path>
    <path id="STROKE_5e69ae03-93de-4171-8307-f66c8b158593" opacity="1.000" fill="none" stroke="#1c7aa2" stroke-width="19.000" stroke-opacity="1.000" stroke-linecap="round" stroke-linejoin="round" d="M -51.508 795.469 Q -51.508 794.231 -51.508 790.416 Q -51.508 786.600 -51.508 784.297 Q -51.508 781.993 -51.508 780.929 Q -51.508 779.865 -51.508 778.584 Q -51.508 777.302 -51.508 775.455 Q -51.508 773.609 -51.508 772.454 Q -51.508 771.300 -51.508 770.717 Q -51.508 770.134 -51.508 769.484 Q -51.508 768.833 -51.508 766.549 Q -51.508 764.264 -51.508 760.974 Q -51.508 757.684 -51.508 752.921 Q -51.508 748.158 -51.508 745.871 Q -51.508 743.584 -51.508 742.621 Q -51.508 741.659 -51.508 741.572 Q -51.508 741.484 -51.508 741.104 Q -51.508 740.723 -51.508 738.308 Q -51.508 735.893 -51.508 735.351 Q -51.508 734.808 -51.508 732.553 Q -51.508 730.297 -51.508 725.046 "></path>
    <path id="STROKE_c689375f-4cf0-4f5c-a204-7bdc1aa4b773" opacity="1.000" fill="none" stroke="#1c7aa2" stroke-width="19.000" stroke-opacity="1.000" stroke-linecap="round" stroke-linejoin="round" d="M -39.275 712.159 Q -39.442 712.159 -34.906 712.159 Q -30.370 712.159 -28.002 712.159 Q -25.634 712.159 -24.578 712.159 Q -23.523 712.159 -23.172 712.159 Q -22.821 712.159 -22.410 712.159 Q -21.998 712.159 -17.370 712.159 Q -12.741 712.159 -9.964 712.159 Q -7.186 712.159 -3.987 712.159 Q -0.787 712.159 1.323 712.159 Q 3.434 712.159 4.186 712.159 Q 4.938 712.159 6.022 712.159 Q 7.107 712.159 8.299 712.159 Q 9.491 712.159 10.177 712.159 Q 10.864 712.159 11.870 712.159 Q 12.876 712.159 13.563 712.159 Q 14.249 712.159 14.697 712.159 Q 15.145 712.159 15.461 712.159 Q 15.776 712.159 15.966 712.159 Q 16.157 712.159 16.316 712.159 Q 16.475 712.159 16.407 712.159 Q 16.339 712.159 16.784 712.159 Q 17.230 712.159 18.167 712.159 Q 19.104 712.159 19.913 712.159 Q 20.721 712.159 21.075 712.159 Q 21.429 712.159 21.654 712.159 Q 21.879 712.159 23.364 712.159 Q 24.850 712.159 26.738 712.159 Q 28.626 712.159 29.595 712.159 Q 30.564 712.159 30.983 712.159 Q 31.403 712.159 31.603 712.159 Q 31.804 712.159 31.773 712.159 Q 31.742 712.159 31.730 712.159 Q 31.719 712.159 31.843 712.159 Q 31.967 712.159 32.083 712.159 Q 32.199 712.159 32.317 712.159 "></path>
    <path id="STROKE_45d3d024-4536-4647-8931-3c2f02fd13ce" opacity="1.000" fill="none" stroke="#1c7aa2" stroke-width="19.000" stroke-opacity="1.000" stroke-linecap="round" stroke-linejoin="round" d="M 45.025 724.064 Q 45.025 723.968 45.025 725.827 Q 45.025 727.687 45.025 729.104 Q 45.025 730.522 45.025 731.276 Q 45.025 732.031 45.025 732.093 Q 45.025 732.155 45.025 732.592 Q 45.025 733.030 45.025 733.333 Q 45.025 733.636 45.025 733.884 Q 45.025 734.131 45.025 734.067 Q 45.025 734.003 45.025 736.314 Q 45.025 738.624 45.025 740.453 Q 45.025 742.281 45.025 743.475 Q 45.025 744.669 45.025 746.357 Q 45.025 748.045 45.025 750.321 Q 45.025 752.596 45.025 753.921 Q 45.025 755.247 45.025 756.898 Q 45.025 758.550 45.025 760.356 Q 45.025 762.162 45.025 763.756 Q 45.025 765.351 45.025 766.493 Q 45.025 767.636 45.025 768.198 Q 45.025 768.759 45.025 769.575 Q 45.025 770.391 45.025 770.658 Q 45.025 770.925 45.025 771.488 Q 45.025 772.050 45.025 772.785 Q 45.025 773.520 45.025 773.853 Q 45.025 774.185 45.025 775.145 Q 45.025 776.105 45.025 777.297 Q 45.025 778.488 45.025 779.146 Q 45.025 779.805 45.025 780.232 Q 45.025 780.660 45.025 780.560 Q 45.025 780.461 45.025 780.986 Q 45.025 781.512 45.025 782.365 Q 45.025 783.217 45.025 783.721 Q 45.025 784.224 45.025 784.737 Q 45.025 785.250 45.025 786.103 Q 45.025 786.956 45.025 787.534 Q 45.025 788.112 45.025 789.183 Q 45.025 790.255 45.025 791.062 Q 45.025 791.870 45.025 792.771 Q 45.025 793.672 45.025 794.175 Q 45.025 794.677 45.025 795.053 Q 45.025 795.430 45.025 795.481 Q 45.025 795.532 45.025 795.577 Q 45.025 795.622 45.025 795.781 Q 45.025 795.940 45.025 795.941 Q 45.025 795.941 45.025 795.933 Q 45.025 795.925 45.025 796.052 Q 45.025 796.179 45.025 796.179 Q 45.025 796.178 45.025 796.176 Q 45.025 796.224 45.025 796.395 "></path>
    <path id="STROKE_78f5948b-fe7d-41c6-b47b-2d93dc2100fc" opacity="1.000" fill="none" stroke="#1c7aa2" stroke-width="19.000" stroke-opacity="1.000" stroke-linecap="round" stroke-linejoin="round" d="M -39.805 808.415 Q -39.706 808.415 -36.516 808.415 Q -33.325 808.415 -31.113 808.415 Q -28.902 808.415 -27.917 808.415 Q -26.932 808.415 -25.847 808.415 Q -24.762 808.415 -24.151 808.415 Q -23.539 808.415 -23.539 808.415 Q -23.539 808.415 -22.886 808.415 Q -22.233 808.415 -19.623 808.415 Q -17.013 808.415 -15.481 808.415 Q -13.949 808.415 -12.915 808.415 Q -11.882 808.415 -10.766 808.415 Q -9.650 808.415 -8.753 808.415 Q -7.855 808.415 -4.537 808.415 Q -1.218 808.415 1.174 808.415 Q 3.565 808.415 4.727 808.415 Q 5.889 808.415 8.061 808.415 Q 10.232 808.415 12.443 808.415 Q 14.653 808.415 17.873 808.415 Q 21.092 808.415 23.340 808.415 Q 25.588 808.415 27.489 808.415 Q 29.389 808.415 30.248 808.415 Q 31.108 808.415 31.745 808.415 Q 32.383 808.415 32.735 808.415 "></path>
    <path id="STROKE_c20a923a-33de-49b1-a466-6d3dc4e3cebf" opacity="1.000" fill="none" stroke="#1c7aa2" stroke-width="19.000" stroke-opacity="1.000" stroke-linecap="round" stroke-linejoin="round" d="M -51.749 795.938 Q -51.762 796.070 -51.769 796.172 Q -51.775 796.274 -51.780 796.430 Q -51.786 796.585 -51.801 796.922 Q -51.816 797.258 -51.818 797.418 Q -51.820 797.579 -51.818 797.730 Q -51.816 797.881 -51.804 798.168 Q -51.792 798.455 -51.769 798.756 Q -51.746 799.057 -51.731 799.209 Q -51.716 799.360 -51.689 799.601 Q -51.663 799.842 -51.469 800.822 Q -51.276 801.801 -51.131 802.224 Q -50.985 802.648 -50.825 803.002 Q -50.665 803.357 -50.563 803.550 Q -50.460 803.742 -50.286 804.036 Q -50.111 804.329 -49.864 804.668 Q -49.617 805.008 -49.504 805.141 Q -49.391 805.274 -49.215 805.464 Q -49.040 805.654 -48.645 806.021 Q -48.250 806.388 -48.169 806.452 Q -48.089 806.517 -47.968 806.605 Q -47.847 806.693 -47.741 806.763 Q -47.635 806.832 -47.499 806.914 Q -47.362 806.995 -47.040 807.166 Q -46.718 807.338 -46.253 807.532 Q -45.789 807.726 -45.642 807.777 Q -45.494 807.828 -45.248 807.894 Q -45.001 807.961 -44.681 808.029 Q -44.360 808.098 -44.177 808.128 Q -43.994 808.158 -43.614 808.207 Q -43.234 808.257 -42.958 808.287 Q -42.682 808.317 -42.131 808.344 Q -41.580 808.370 -40.918 808.373 Q -40.256 808.376 -40.165 808.373 Q -40.075 808.369 -39.797 808.363 Q -39.520 808.357 -39.394 808.352 "></path>
    <path id="STROKE_63c9657b-e7d4-4214-b945-0283b550a835" opacity="1.000" fill="none" stroke="#1c7aa2" stroke-width="19.000" stroke-opacity="1.000" stroke-linecap="round" stroke-linejoin="round" d="M 32.820 808.910 Q 33.170 808.842 33.774 808.730 Q 34.378 808.618 34.898 808.512 Q 35.418 808.406 36.078 808.237 Q 36.739 808.068 37.131 807.953 Q 37.524 807.837 37.662 807.794 Q 37.800 807.752 38.304 807.543 Q 38.808 807.334 39.166 807.165 Q 39.525 806.995 39.833 806.818 Q 40.142 806.640 40.681 806.229 Q 41.221 805.819 41.352 805.698 Q 41.483 805.577 41.601 805.454 Q 41.719 805.330 42.080 804.860 Q 42.441 804.389 42.722 803.921 Q 43.003 803.453 43.096 803.283 Q 43.189 803.112 43.380 802.689 Q 43.571 802.266 43.679 801.977 Q 43.786 801.688 43.859 801.471 Q 43.932 801.254 44.090 800.742 Q 44.248 800.230 44.366 799.762 Q 44.483 799.294 44.535 799.033 Q 44.588 798.772 44.634 798.562 Q 44.680 798.351 44.804 797.872 Q 44.927 797.392 45.116 796.507 "></path>
    <path id="STROKE_d90698be-011c-45f4-8053-49ce2b10c419" opacity="1.000" fill="none" stroke="#1c7aa2" stroke-width="19.000" stroke-opacity="1.000" stroke-linecap="round" stroke-linejoin="round" d="M -51.490 724.826 L -51.532 724.549 Q -51.536 724.406 -51.571 723.736 Q -51.606 723.065 -51.609 722.713 Q -51.613 722.361 -51.594 721.947 Q -51.574 721.533 -51.504 720.954 Q -51.433 720.374 -51.380 720.068 Q -51.327 719.763 -51.300 719.635 Q -51.273 719.508 -51.240 719.380 Q -51.207 719.252 -51.182 719.151 Q -51.156 719.051 -51.071 718.731 Q -50.985 718.410 -50.916 718.183 Q -50.846 717.956 -50.721 717.592 Q -50.596 717.228 -50.476 716.932 Q -50.356 716.635 -50.256 716.419 Q -50.155 716.203 -49.682 715.457 Q -49.209 714.711 -49.026 714.503 Q -48.842 714.296 -48.580 714.056 Q -48.318 713.817 -47.957 713.561 Q -47.596 713.304 -47.289 713.141 Q -46.982 712.978 -46.703 712.864 Q -46.423 712.750 -46.228 712.685 Q -46.033 712.621 -45.523 712.495 Q -45.013 712.369 -44.990 712.364 Q -44.968 712.358 -44.631 712.307 Q -44.293 712.255 -44.030 712.225 Q -43.768 712.195 -43.576 712.177 Q -43.384 712.159 -43.196 712.144 Q -43.008 712.129 -42.799 712.122 Q -42.589 712.114 -42.314 712.115 Q -42.039 712.115 -41.814 712.121 Q -41.589 712.128 -41.371 712.137 Q -41.153 712.147 -40.881 712.159 Q -40.608 712.171 -40.340 712.183 Q -40.072 712.195 -40.026 712.197 Q -39.981 712.199 -39.090 712.247 L -38.822 712.264 "></path>
    <path id="STROKE_6054d448-d881-4743-b926-e8fde2857eb5" opacity="1.000" fill="none" stroke="#1c7aa2" stroke-width="19.000" stroke-opacity="1.000" stroke-linecap="round" stroke-linejoin="round" d="M 32.749 712.053 Q 32.807 712.051 32.989 712.065 Q 33.241 712.057 33.388 712.057 Q 33.534 712.057 33.836 712.056 Q 34.137 712.056 34.304 712.058 Q 34.470 712.060 35.269 712.106 Q 36.068 712.152 36.328 712.182 Q 36.588 712.211 36.752 712.232 Q 36.916 712.254 37.117 712.281 Q 37.318 712.307 37.620 712.349 Q 37.923 712.391 38.292 712.459 Q 38.662 712.527 38.936 712.587 Q 39.211 712.648 39.346 712.683 Q 39.482 712.719 39.716 712.785 Q 39.949 712.850 40.209 712.937 Q 40.469 713.024 40.592 713.072 Q 40.715 713.121 40.835 713.175 Q 40.955 713.229 41.230 713.377 Q 41.505 713.524 41.707 713.660 Q 41.909 713.796 42.063 713.918 Q 42.218 714.041 42.445 714.253 Q 42.672 714.466 43.019 714.895 Q 43.366 715.323 43.654 715.827 Q 43.941 716.331 43.994 716.447 Q 44.046 716.562 44.165 716.843 Q 44.283 717.123 44.399 717.454 Q 44.515 717.784 44.598 718.075 Q 44.681 718.366 44.752 718.680 Q 44.823 718.995 44.899 719.408 Q 44.975 719.821 45.002 720.009 Q 45.029 720.196 45.069 720.581 Q 45.109 720.966 45.131 721.228 Q 45.152 721.490 45.159 721.612 Q 45.165 721.733 45.181 722.155 Q 45.196 722.577 45.196 722.782 Q 45.197 722.987 45.198 723.031 Q 45.199 723.076 45.197 723.136 Q 45.195 723.197 45.180 723.356 Q 45.166 723.514 45.163 723.548 Q 45.161 723.581 45.159 723.667 Q 45.157 723.754 45.163 723.833 Q 45.168 723.911 45.173 723.979 Q 45.177 724.046 45.172 724.101 Q 45.166 724.155 45.156 724.471 "></path>
    <path id="STROKE_1f494116-184f-4855-8e3e-d234e95a3aaa" opacity="1.000" fill="none" stroke="#1c7aa2" stroke-width="19.000" stroke-opacity="1.000" stroke-linecap="round" stroke-linejoin="round" d="M -50.722 658.642 Q -50.722 657.404 -50.722 653.589 Q -50.722 649.773 -50.722 647.470 Q -50.722 645.166 -50.722 644.102 Q -50.722 643.038 -50.722 641.757 Q -50.722 640.475 -50.722 638.628 Q -50.722 636.781 -50.722 635.627 Q -50.722 634.473 -50.722 633.890 Q -50.722 633.307 -50.722 632.657 Q -50.722 632.006 -50.722 629.722 Q -50.722 627.437 -50.722 624.147 Q -50.722 620.857 -50.722 616.094 Q -50.722 611.331 -50.722 609.044 Q -50.722 606.757 -50.722 605.794 Q -50.722 604.832 -50.722 604.745 Q -50.722 604.657 -50.722 604.277 Q -50.722 603.896 -50.722 601.481 Q -50.722 599.066 -50.722 598.524 Q -50.722 597.981 -50.722 595.726 Q -50.722 593.470 -50.722 588.219 "></path>
    <path id="STROKE_5b997282-2ac8-4366-a1de-d7c74458b934" opacity="1.000" fill="none" stroke="#1c7aa2" stroke-width="19.000" stroke-opacity="1.000" stroke-linecap="round" stroke-linejoin="round" d="M -38.488 575.332 Q -38.655 575.332 -34.119 575.332 Q -29.584 575.332 -27.215 575.332 Q -24.847 575.332 -23.792 575.332 Q -22.736 575.332 -22.386 575.332 Q -22.035 575.332 -21.623 575.332 Q -21.212 575.332 -16.583 575.332 Q -11.955 575.332 -9.177 575.332 Q -6.400 575.332 -3.200 575.332 Q -0.001 575.332 2.110 575.332 Q 4.220 575.332 4.972 575.332 Q 5.724 575.332 6.809 575.332 Q 7.893 575.332 9.085 575.332 Q 10.277 575.332 10.964 575.332 Q 11.650 575.332 12.657 575.332 Q 13.663 575.332 14.349 575.332 Q 15.035 575.332 15.484 575.332 Q 15.932 575.332 16.247 575.332 Q 16.562 575.332 16.753 575.332 Q 16.943 575.332 17.102 575.332 Q 17.262 575.332 17.194 575.332 Q 17.126 575.332 17.571 575.332 Q 18.016 575.332 18.953 575.332 Q 19.891 575.332 20.699 575.332 Q 21.507 575.332 21.861 575.332 Q 22.215 575.332 22.440 575.332 Q 22.665 575.332 24.151 575.332 Q 25.636 575.332 27.525 575.332 Q 29.413 575.332 30.382 575.332 Q 31.350 575.332 31.770 575.332 Q 32.189 575.332 32.390 575.332 Q 32.591 575.332 32.559 575.332 Q 32.528 575.332 32.517 575.332 Q 32.505 575.332 32.629 575.332 Q 32.753 575.332 32.870 575.332 Q 32.986 575.332 33.103 575.332 "></path>
    <path id="STROKE_f4fbdd94-f473-4f06-a883-ba467acfc5bf" opacity="1.000" fill="none" stroke="#1c7aa2" stroke-width="19.000" stroke-opacity="1.000" stroke-linecap="round" stroke-linejoin="round" d="M 45.812 587.237 Q 45.812 587.141 45.812 589.000 Q 45.812 590.860 45.812 592.277 Q 45.812 593.695 45.812 594.449 Q 45.812 595.204 45.812 595.266 Q 45.812 595.328 45.812 595.765 Q 45.812 596.203 45.812 596.506 Q 45.812 596.809 45.812 597.057 Q 45.812 597.304 45.812 597.240 Q 45.812 597.176 45.812 599.487 Q 45.812 601.797 45.812 603.625 Q 45.812 605.454 45.812 606.648 Q 45.812 607.842 45.812 609.530 Q 45.812 611.218 45.812 613.494 Q 45.812 615.769 45.812 617.094 Q 45.812 618.420 45.812 620.071 Q 45.812 621.723 45.812 623.529 Q 45.812 625.335 45.812 626.929 Q 45.812 628.524 45.812 629.666 Q 45.812 630.809 45.812 631.371 Q 45.812 631.932 45.812 632.748 Q 45.812 633.564 45.812 633.831 Q 45.812 634.098 45.812 634.661 Q 45.812 635.223 45.812 635.958 Q 45.812 636.693 45.812 637.026 Q 45.812 637.358 45.812 638.318 Q 45.812 639.278 45.812 640.470 Q 45.812 641.661 45.812 642.319 Q 45.812 642.978 45.812 643.405 Q 45.812 643.833 45.812 643.733 Q 45.812 643.634 45.812 644.159 Q 45.812 644.685 45.812 645.537 Q 45.812 646.390 45.812 646.894 Q 45.812 647.397 45.812 647.910 Q 45.812 648.423 45.812 649.276 Q 45.812 650.129 45.812 650.707 Q 45.812 651.285 45.812 652.356 Q 45.812 653.428 45.812 654.235 Q 45.812 655.043 45.812 655.944 Q 45.812 656.845 45.812 657.348 Q 45.812 657.850 45.812 658.226 Q 45.812 658.603 45.812 658.654 Q 45.812 658.705 45.812 658.750 Q 45.812 658.795 45.812 658.954 Q 45.812 659.113 45.812 659.114 Q 45.812 659.114 45.812 659.106 Q 45.812 659.098 45.812 659.225 Q 45.812 659.352 45.812 659.352 Q 45.812 659.351 45.812 659.349 Q 45.812 659.397 45.812 659.568 "></path>
    <path id="STROKE_06318a2c-0c8f-4821-aa51-0d8406cf3986" opacity="1.000" fill="none" stroke="#1c7aa2" stroke-width="19.000" stroke-opacity="1.000" stroke-linecap="round" stroke-linejoin="round" d="M -39.018 671.588 Q -38.920 671.588 -35.729 671.588 Q -32.539 671.588 -30.327 671.588 Q -28.115 671.588 -27.130 671.588 Q -26.145 671.588 -25.060 671.588 Q -23.975 671.588 -23.364 671.588 Q -22.753 671.588 -22.753 671.588 Q -22.752 671.588 -22.100 671.588 Q -21.447 671.588 -18.837 671.588 Q -16.227 671.588 -14.695 671.588 Q -13.162 671.588 -12.129 671.588 Q -11.096 671.588 -9.980 671.588 Q -8.864 671.588 -7.966 671.588 Q -7.069 671.588 -3.750 671.588 Q -0.432 671.588 1.960 671.588 Q 4.352 671.588 5.514 671.588 Q 6.676 671.588 8.847 671.588 Q 11.018 671.588 13.229 671.588 Q 15.439 671.588 18.659 671.588 Q 21.878 671.588 24.126 671.588 Q 26.374 671.588 28.275 671.588 Q 30.176 671.588 31.035 671.588 Q 31.894 671.588 32.532 671.588 Q 33.169 671.588 33.521 671.588 "></path>
    <path id="STROKE_f3669bd3-4282-4594-a828-316c16d8f133" opacity="1.000" fill="none" stroke="#1c7aa2" stroke-width="19.000" stroke-opacity="1.000" stroke-linecap="round" stroke-linejoin="round" d="M -50.962 659.111 Q -50.976 659.243 -50.982 659.345 Q -50.989 659.447 -50.994 659.603 Q -50.999 659.758 -51.014 660.095 Q -51.029 660.431 -51.032 660.591 Q -51.034 660.752 -51.032 660.903 Q -51.030 661.054 -51.018 661.341 Q -51.006 661.628 -50.983 661.929 Q -50.959 662.230 -50.945 662.382 Q -50.930 662.533 -50.903 662.774 Q -50.876 663.015 -50.683 663.995 Q -50.490 664.974 -50.344 665.397 Q -50.198 665.821 -50.039 666.175 Q -49.879 666.530 -49.776 666.723 Q -49.674 666.915 -49.499 667.209 Q -49.325 667.502 -49.078 667.841 Q -48.830 668.181 -48.717 668.314 Q -48.604 668.447 -48.429 668.637 Q -48.253 668.827 -47.858 669.194 Q -47.464 669.561 -47.383 669.625 Q -47.302 669.690 -47.181 669.778 Q -47.060 669.866 -46.955 669.936 Q -46.849 670.005 -46.713 670.087 Q -46.576 670.168 -46.254 670.339 Q -45.931 670.511 -45.467 670.705 Q -45.003 670.899 -44.855 670.950 Q -44.708 671.001 -44.461 671.067 Q -44.215 671.134 -43.894 671.202 Q -43.574 671.271 -43.391 671.301 Q -43.207 671.331 -42.827 671.380 Q -42.447 671.430 -42.172 671.460 Q -41.896 671.490 -41.345 671.517 Q -40.793 671.543 -40.131 671.546 Q -39.469 671.549 -39.379 671.546 Q -39.289 671.542 -39.011 671.536 Q -38.733 671.530 -38.607 671.525 "></path>
    <path id="STROKE_69b3a7c9-0da4-479d-9a3b-5aff99d1b3c8" opacity="1.000" fill="none" stroke="#1c7aa2" stroke-width="19.000" stroke-opacity="1.000" stroke-linecap="round" stroke-linejoin="round" d="M 33.606 672.083 Q 33.957 672.015 34.561 671.903 Q 35.165 671.791 35.684 671.685 Q 36.204 671.579 36.865 671.410 Q 37.525 671.241 37.918 671.125 Q 38.310 671.010 38.448 670.967 Q 38.587 670.925 39.090 670.716 Q 39.594 670.507 39.953 670.338 Q 40.311 670.168 40.620 669.991 Q 40.928 669.813 41.468 669.402 Q 42.007 668.992 42.138 668.871 Q 42.269 668.750 42.388 668.627 Q 42.506 668.503 42.866 668.033 Q 43.227 667.562 43.508 667.094 Q 43.789 666.626 43.882 666.456 Q 43.975 666.285 44.167 665.862 Q 44.358 665.439 44.465 665.150 Q 44.573 664.861 44.646 664.644 Q 44.718 664.427 44.877 663.915 Q 45.035 663.403 45.152 662.935 Q 45.269 662.467 45.322 662.206 Q 45.375 661.945 45.421 661.735 Q 45.467 661.524 45.590 661.045 Q 45.714 660.565 45.902 659.680 "></path>
    <path id="STROKE_77541acf-1d08-4c12-ac31-544571dab852" opacity="1.000" fill="none" stroke="#1c7aa2" stroke-width="19.000" stroke-opacity="1.000" stroke-linecap="round" stroke-linejoin="round" d="M -50.704 587.999 L -50.746 587.722 Q -50.750 587.579 -50.785 586.909 Q -50.819 586.238 -50.823 585.886 Q -50.826 585.534 -50.807 585.120 Q -50.788 584.706 -50.717 584.127 Q -50.647 583.547 -50.594 583.241 Q -50.540 582.935 -50.514 582.808 Q -50.487 582.681 -50.454 582.553 Q -50.421 582.424 -50.396 582.324 Q -50.370 582.224 -50.285 581.904 Q -50.199 581.583 -50.129 581.356 Q -50.060 581.129 -49.934 580.765 Q -49.809 580.401 -49.689 580.105 Q -49.570 579.808 -49.469 579.592 Q -49.369 579.376 -48.896 578.630 Q -48.423 577.884 -48.239 577.676 Q -48.056 577.469 -47.794 577.229 Q -47.532 576.990 -47.171 576.734 Q -46.809 576.477 -46.502 576.314 Q -46.196 576.151 -45.916 576.037 Q -45.637 575.923 -45.442 575.858 Q -45.247 575.794 -44.737 575.668 Q -44.226 575.542 -44.204 575.536 Q -44.182 575.531 -43.844 575.480 Q -43.507 575.428 -43.244 575.398 Q -42.982 575.368 -42.789 575.350 Q -42.597 575.332 -42.409 575.317 Q -42.221 575.302 -42.012 575.295 Q -41.803 575.287 -41.528 575.288 Q -41.253 575.288 -41.028 575.294 Q -40.803 575.301 -40.585 575.310 Q -40.367 575.320 -40.094 575.332 Q -39.822 575.344 -39.554 575.356 Q -39.286 575.368 -39.240 575.370 Q -39.194 575.372 -38.304 575.419 L -38.036 575.437 "></path>
    <path id="STROKE_3c759500-3341-474d-8123-4efe5b11644d" opacity="1.000" fill="none" stroke="#1c7aa2" stroke-width="19.000" stroke-opacity="1.000" stroke-linecap="round" stroke-linejoin="round" d="M 33.536 575.226 Q 33.593 575.224 33.776 575.238 Q 34.028 575.230 34.174 575.230 Q 34.321 575.229 34.622 575.229 Q 34.924 575.229 35.090 575.231 Q 35.257 575.233 36.055 575.279 Q 36.854 575.325 37.114 575.354 Q 37.374 575.384 37.538 575.405 Q 37.702 575.427 37.903 575.454 Q 38.105 575.480 38.407 575.522 Q 38.709 575.564 39.079 575.632 Q 39.448 575.700 39.722 575.760 Q 39.997 575.821 40.133 575.856 Q 40.268 575.892 40.502 575.958 Q 40.736 576.023 40.996 576.110 Q 41.256 576.197 41.378 576.245 Q 41.501 576.294 41.622 576.348 Q 41.742 576.402 42.017 576.550 Q 42.291 576.697 42.493 576.833 Q 42.695 576.969 42.850 577.091 Q 43.005 577.214 43.232 577.426 Q 43.459 577.639 43.806 578.068 Q 44.152 578.496 44.440 579.000 Q 44.727 579.504 44.780 579.620 Q 44.833 579.735 44.951 580.016 Q 45.070 580.296 45.186 580.627 Q 45.302 580.957 45.384 581.248 Q 45.467 581.539 45.538 581.853 Q 45.609 582.168 45.685 582.581 Q 45.761 582.994 45.788 583.182 Q 45.815 583.369 45.855 583.754 Q 45.895 584.139 45.917 584.401 Q 45.939 584.663 45.945 584.784 Q 45.952 584.906 45.967 585.328 Q 45.982 585.750 45.983 585.955 Q 45.983 586.160 45.985 586.204 Q 45.986 586.249 45.984 586.309 Q 45.982 586.370 45.967 586.529 Q 45.952 586.687 45.950 586.721 Q 45.948 586.754 45.946 586.840 Q 45.944 586.927 45.949 587.006 Q 45.954 587.084 45.959 587.152 Q 45.964 587.219 45.958 587.274 Q 45.953 587.328 45.942 587.644 "></path>
    <path id="STROKE_5e7aab84-8bb6-4ecc-99c8-9fafbb4d5f2c" opacity="1.000" fill="none" stroke="#1c7aa2" stroke-width="19.000" stroke-opacity="1.000" stroke-linecap="round" stroke-linejoin="round" d="M -50.722 658.642 Q -50.722 657.404 -50.722 653.589 Q -50.722 649.773 -50.722 647.470 Q -50.722 645.166 -50.722 644.102 Q -50.722 643.038 -50.722 641.757 Q -50.722 640.475 -50.722 638.628 Q -50.722 636.781 -50.722 635.627 Q -50.722 634.473 -50.722 633.890 Q -50.722 633.307 -50.722 632.657 Q -50.722 632.006 -50.722 629.722 Q -50.722 627.437 -50.722 624.147 Q -50.722 620.857 -50.722 616.094 Q -50.722 611.331 -50.722 609.044 Q -50.722 606.757 -50.722 605.794 Q -50.722 604.832 -50.722 604.745 Q -50.722 604.657 -50.722 604.277 Q -50.722 603.896 -50.722 601.481 Q -50.722 599.066 -50.722 598.524 Q -50.722 597.981 -50.722 595.726 Q -50.722 593.470 -50.722 588.219 "></path>
    <path id="STROKE_a020cc5f-6678-498a-b9cc-a20d42b32075" opacity="1.000" fill="none" stroke="#1c7aa2" stroke-width="19.000" stroke-opacity="1.000" stroke-linecap="round" stroke-linejoin="round" d="M -38.488 575.332 Q -38.655 575.332 -34.119 575.332 Q -29.584 575.332 -27.215 575.332 Q -24.847 575.332 -23.792 575.332 Q -22.736 575.332 -22.386 575.332 Q -22.035 575.332 -21.623 575.332 Q -21.212 575.332 -16.583 575.332 Q -11.955 575.332 -9.177 575.332 Q -6.400 575.332 -3.200 575.332 Q -0.001 575.332 2.110 575.332 Q 4.220 575.332 4.972 575.332 Q 5.724 575.332 6.809 575.332 Q 7.893 575.332 9.085 575.332 Q 10.277 575.332 10.964 575.332 Q 11.650 575.332 12.657 575.332 Q 13.663 575.332 14.349 575.332 Q 15.035 575.332 15.484 575.332 Q 15.932 575.332 16.247 575.332 Q 16.562 575.332 16.753 575.332 Q 16.943 575.332 17.102 575.332 Q 17.262 575.332 17.194 575.332 Q 17.126 575.332 17.571 575.332 Q 18.016 575.332 18.953 575.332 Q 19.891 575.332 20.699 575.332 Q 21.507 575.332 21.861 575.332 Q 22.215 575.332 22.440 575.332 Q 22.665 575.332 24.151 575.332 Q 25.636 575.332 27.525 575.332 Q 29.413 575.332 30.382 575.332 Q 31.350 575.332 31.770 575.332 Q 32.189 575.332 32.390 575.332 Q 32.591 575.332 32.559 575.332 Q 32.528 575.332 32.517 575.332 Q 32.505 575.332 32.629 575.332 Q 32.753 575.332 32.870 575.332 Q 32.986 575.332 33.103 575.332 "></path>
    <path id="STROKE_a805531b-0a44-4c82-9990-7f5dadbb75d3" opacity="1.000" fill="none" stroke="#1c7aa2" stroke-width="19.000" stroke-opacity="1.000" stroke-linecap="round" stroke-linejoin="round" d="M 45.812 587.237 Q 45.812 587.141 45.812 589.000 Q 45.812 590.860 45.812 592.277 Q 45.812 593.695 45.812 594.449 Q 45.812 595.204 45.812 595.266 Q 45.812 595.328 45.812 595.765 Q 45.812 596.203 45.812 596.506 Q 45.812 596.809 45.812 597.057 Q 45.812 597.304 45.812 597.240 Q 45.812 597.176 45.812 599.487 Q 45.812 601.797 45.812 603.625 Q 45.812 605.454 45.812 606.648 Q 45.812 607.842 45.812 609.530 Q 45.812 611.218 45.812 613.494 Q 45.812 615.769 45.812 617.094 Q 45.812 618.420 45.812 620.071 Q 45.812 621.723 45.812 623.529 Q 45.812 625.335 45.812 626.929 Q 45.812 628.524 45.812 629.666 Q 45.812 630.809 45.812 631.371 Q 45.812 631.932 45.812 632.748 Q 45.812 633.564 45.812 633.831 Q 45.812 634.098 45.812 634.661 Q 45.812 635.223 45.812 635.958 Q 45.812 636.693 45.812 637.026 Q 45.812 637.358 45.812 638.318 Q 45.812 639.278 45.812 640.470 Q 45.812 641.661 45.812 642.319 Q 45.812 642.978 45.812 643.405 Q 45.812 643.833 45.812 643.733 Q 45.812 643.634 45.812 644.159 Q 45.812 644.685 45.812 645.537 Q 45.812 646.390 45.812 646.894 Q 45.812 647.397 45.812 647.910 Q 45.812 648.423 45.812 649.276 Q 45.812 650.129 45.812 650.707 Q 45.812 651.285 45.812 652.356 Q 45.812 653.428 45.812 654.235 Q 45.812 655.043 45.812 655.944 Q 45.812 656.845 45.812 657.348 Q 45.812 657.850 45.812 658.226 Q 45.812 658.603 45.812 658.654 Q 45.812 658.705 45.812 658.750 Q 45.812 658.795 45.812 658.954 Q 45.812 659.113 45.812 659.114 Q 45.812 659.114 45.812 659.106 Q 45.812 659.098 45.812 659.225 Q 45.812 659.352 45.812 659.352 Q 45.812 659.351 45.812 659.349 Q 45.812 659.397 45.812 659.568 "></path>
    <path id="STROKE_a2708887-c973-41a2-99c9-fa9d03c1ec54" opacity="1.000" fill="none" stroke="#1c7aa2" stroke-width="19.000" stroke-opacity="1.000" stroke-linecap="round" stroke-linejoin="round" d="M -39.018 671.588 Q -38.920 671.588 -35.729 671.588 Q -32.539 671.588 -30.327 671.588 Q -28.115 671.588 -27.130 671.588 Q -26.145 671.588 -25.060 671.588 Q -23.975 671.588 -23.364 671.588 Q -22.753 671.588 -22.753 671.588 Q -22.752 671.588 -22.100 671.588 Q -21.447 671.588 -18.837 671.588 Q -16.227 671.588 -14.695 671.588 Q -13.162 671.588 -12.129 671.588 Q -11.096 671.588 -9.980 671.588 Q -8.864 671.588 -7.966 671.588 Q -7.069 671.588 -3.750 671.588 Q -0.432 671.588 1.960 671.588 Q 4.352 671.588 5.514 671.588 Q 6.676 671.588 8.847 671.588 Q 11.018 671.588 13.229 671.588 Q 15.439 671.588 18.659 671.588 Q 21.878 671.588 24.126 671.588 Q 26.374 671.588 28.275 671.588 Q 30.176 671.588 31.035 671.588 Q 31.894 671.588 32.532 671.588 Q 33.169 671.588 33.521 671.588 "></path>
    <path id="STROKE_4116d9f8-59ac-4b7f-98a7-d056aae48b80" opacity="1.000" fill="none" stroke="#1c7aa2" stroke-width="19.000" stroke-opacity="1.000" stroke-linecap="round" stroke-linejoin="round" d="M -50.962 659.111 Q -50.976 659.243 -50.982 659.345 Q -50.989 659.447 -50.994 659.603 Q -50.999 659.758 -51.014 660.095 Q -51.029 660.431 -51.032 660.591 Q -51.034 660.752 -51.032 660.903 Q -51.030 661.054 -51.018 661.341 Q -51.006 661.628 -50.983 661.929 Q -50.959 662.230 -50.945 662.382 Q -50.930 662.533 -50.903 662.774 Q -50.876 663.015 -50.683 663.995 Q -50.490 664.974 -50.344 665.397 Q -50.198 665.821 -50.039 666.175 Q -49.879 666.530 -49.776 666.723 Q -49.674 666.915 -49.499 667.209 Q -49.325 667.502 -49.078 667.841 Q -48.830 668.181 -48.717 668.314 Q -48.604 668.447 -48.429 668.637 Q -48.253 668.827 -47.858 669.194 Q -47.464 669.561 -47.383 669.625 Q -47.302 669.690 -47.181 669.778 Q -47.060 669.866 -46.955 669.936 Q -46.849 670.005 -46.713 670.087 Q -46.576 670.168 -46.254 670.339 Q -45.931 670.511 -45.467 670.705 Q -45.003 670.899 -44.855 670.950 Q -44.708 671.001 -44.461 671.067 Q -44.215 671.134 -43.894 671.202 Q -43.574 671.271 -43.391 671.301 Q -43.207 671.331 -42.827 671.380 Q -42.447 671.430 -42.172 671.460 Q -41.896 671.490 -41.345 671.517 Q -40.793 671.543 -40.131 671.546 Q -39.469 671.549 -39.379 671.546 Q -39.289 671.542 -39.011 671.536 Q -38.733 671.530 -38.607 671.525 "></path>
    <path id="STROKE_bbbb547c-c1c2-41c1-b7c3-593d64f04cf3" opacity="1.000" fill="none" stroke="#1c7aa2" stroke-width="19.000" stroke-opacity="1.000" stroke-linecap="round" stroke-linejoin="round" d="M 33.606 672.083 Q 33.957 672.015 34.561 671.903 Q 35.165 671.791 35.684 671.685 Q 36.204 671.579 36.865 671.410 Q 37.525 671.241 37.918 671.125 Q 38.310 671.010 38.448 670.967 Q 38.587 670.925 39.090 670.716 Q 39.594 670.507 39.953 670.338 Q 40.311 670.168 40.620 669.991 Q 40.928 669.813 41.468 669.402 Q 42.007 668.992 42.138 668.871 Q 42.269 668.750 42.388 668.627 Q 42.506 668.503 42.866 668.033 Q 43.227 667.562 43.508 667.094 Q 43.789 666.626 43.882 666.456 Q 43.975 666.285 44.167 665.862 Q 44.358 665.439 44.465 665.150 Q 44.573 664.861 44.646 664.644 Q 44.718 664.427 44.877 663.915 Q 45.035 663.403 45.152 662.935 Q 45.269 662.467 45.322 662.206 Q 45.375 661.945 45.421 661.735 Q 45.467 661.524 45.590 661.045 Q 45.714 660.565 45.902 659.680 "></path>
    <path id="STROKE_368fdadc-0e22-4ca2-8fa6-a4af9944159a" opacity="1.000" fill="none" stroke="#1c7aa2" stroke-width="19.000" stroke-opacity="1.000" stroke-linecap="round" stroke-linejoin="round" d="M -50.704 587.999 L -50.746 587.722 Q -50.750 587.579 -50.785 586.909 Q -50.819 586.238 -50.823 585.886 Q -50.826 585.534 -50.807 585.120 Q -50.788 584.706 -50.717 584.127 Q -50.647 583.547 -50.594 583.241 Q -50.540 582.935 -50.514 582.808 Q -50.487 582.681 -50.454 582.553 Q -50.421 582.424 -50.396 582.324 Q -50.370 582.224 -50.285 581.904 Q -50.199 581.583 -50.129 581.356 Q -50.060 581.129 -49.934 580.765 Q -49.809 580.401 -49.689 580.105 Q -49.570 579.808 -49.469 579.592 Q -49.369 579.376 -48.896 578.630 Q -48.423 577.884 -48.239 577.676 Q -48.056 577.469 -47.794 577.229 Q -47.532 576.990 -47.171 576.734 Q -46.809 576.477 -46.502 576.314 Q -46.196 576.151 -45.916 576.037 Q -45.637 575.923 -45.442 575.858 Q -45.247 575.794 -44.737 575.668 Q -44.226 575.542 -44.204 575.536 Q -44.182 575.531 -43.844 575.480 Q -43.507 575.428 -43.244 575.398 Q -42.982 575.368 -42.789 575.350 Q -42.597 575.332 -42.409 575.317 Q -42.221 575.302 -42.012 575.295 Q -41.803 575.287 -41.528 575.288 Q -41.253 575.288 -41.028 575.294 Q -40.803 575.301 -40.585 575.310 Q -40.367 575.320 -40.094 575.332 Q -39.822 575.344 -39.554 575.356 Q -39.286 575.368 -39.240 575.370 Q -39.194 575.372 -38.304 575.419 L -38.036 575.437 "></path>
    <path id="STROKE_1058368f-615a-4b5e-b6d2-abfa35f6812d" opacity="1.000" fill="none" stroke="#1c7aa2" stroke-width="19.000" stroke-opacity="1.000" stroke-linecap="round" stroke-linejoin="round" d="M 33.536 575.226 Q 33.593 575.224 33.776 575.238 Q 34.028 575.230 34.174 575.230 Q 34.321 575.229 34.622 575.229 Q 34.924 575.229 35.090 575.231 Q 35.257 575.233 36.055 575.279 Q 36.854 575.325 37.114 575.354 Q 37.374 575.384 37.538 575.405 Q 37.702 575.427 37.903 575.454 Q 38.105 575.480 38.407 575.522 Q 38.709 575.564 39.079 575.632 Q 39.448 575.700 39.722 575.760 Q 39.997 575.821 40.133 575.856 Q 40.268 575.892 40.502 575.958 Q 40.736 576.023 40.996 576.110 Q 41.256 576.197 41.378 576.245 Q 41.501 576.294 41.622 576.348 Q 41.742 576.402 42.017 576.550 Q 42.291 576.697 42.493 576.833 Q 42.695 576.969 42.850 577.091 Q 43.005 577.214 43.232 577.426 Q 43.459 577.639 43.806 578.068 Q 44.152 578.496 44.440 579.000 Q 44.727 579.504 44.780 579.620 Q 44.833 579.735 44.951 580.016 Q 45.070 580.296 45.186 580.627 Q 45.302 580.957 45.384 581.248 Q 45.467 581.539 45.538 581.853 Q 45.609 582.168 45.685 582.581 Q 45.761 582.994 45.788 583.182 Q 45.815 583.369 45.855 583.754 Q 45.895 584.139 45.917 584.401 Q 45.939 584.663 45.945 584.784 Q 45.952 584.906 45.967 585.328 Q 45.982 585.750 45.983 585.955 Q 45.983 586.160 45.985 586.204 Q 45.986 586.249 45.984 586.309 Q 45.982 586.370 45.967 586.529 Q 45.952 586.687 45.950 586.721 Q 45.948 586.754 45.946 586.840 Q 45.944 586.927 45.949 587.006 Q 45.954 587.084 45.959 587.152 Q 45.964 587.219 45.958 587.274 Q 45.953 587.328 45.942 587.644 "></path>
  </g>
</svg>